<?xml version="1.0" standalone="no"?>
<!DOCTYPE svg PUBLIC "-//W3C//DTD SVG 20010904//EN"
 "http://www.w3.org/TR/2001/REC-SVG-20010904/DTD/svg10.dtd">
<svg version="1.0" xmlns="http://www.w3.org/2000/svg"
 width="1100.000000pt" height="1100.000000pt" viewBox="0 0 1100.000000 1100.000000"
 preserveAspectRatio="xMidYMid meet">

<g transform="translate(0.000000,1100.000000) scale(0.100000,-0.100000)"
fill="#000000" stroke="none">
<path d="M5590 10990 c0 -5 4 -10 10 -10 5 0 7 -7 4 -15 -7 -18 -50 -20 -58
-2 -14 33 -56 -66 -56 -132 0 -50 8 -34 14 27 8 79 25 101 26 31 0 -30 6 -63
13 -73 12 -16 13 -14 9 17 -2 20 3 48 13 66 13 26 20 31 38 25 23 -7 31 -8 60
-6 16 2 16 5 4 30 -8 15 -12 33 -10 40 3 8 -7 12 -31 12 -20 0 -36 -4 -36 -10z"/>
<path d="M5710 10986 c0 -8 5 -18 11 -21 6 -4 8 -13 5 -21 -3 -7 -1 -16 3 -19
5 -2 11 -14 14 -25 7 -27 -19 -27 -28 0 -3 11 -11 20 -16 20 -6 0 -6 -7 1 -19
13 -25 13 -67 0 -91 -7 -14 -6 -23 6 -34 8 -9 13 -20 10 -24 -3 -5 1 -26 9
-48 8 -21 14 -61 14 -89 l0 -50 -19 40 -19 40 0 -42 c-1 -30 -7 -46 -21 -56
-20 -14 -20 -15 9 -78 17 -35 33 -77 36 -94 6 -30 6 -30 -14 6 -11 19 -27 42
-36 49 -15 12 -14 10 1 -23 20 -43 15 -54 -17 -36 -20 10 -25 9 -45 -14 -14
-16 -20 -34 -17 -47 7 -25 23 -37 23 -16 0 39 35 6 73 -69 29 -57 48 -124 25
-91 -7 10 -22 29 -33 40 -11 12 -17 17 -12 12 15 -21 7 -38 -16 -33 -26 7 -40
-1 -52 -28 -8 -19 -9 -19 -12 2 -2 12 5 40 16 62 28 54 26 60 -8 27 -33 -32
-47 -72 -32 -90 6 -7 7 -17 2 -22 -4 -5 0 -17 10 -26 18 -17 19 -17 25 7 3 14
12 25 20 25 17 0 19 -27 2 -33 -8 -3 -5 -6 6 -6 12 -1 16 -6 12 -16 -3 -9 1
-18 9 -21 8 -4 15 -11 15 -16 0 -5 9 -22 19 -37 10 -14 20 -40 22 -56 2 -17 7
-35 11 -41 5 -7 0 -21 -12 -35 -18 -23 -19 -23 -21 -4 -5 76 -10 100 -24 112
-8 7 -10 8 -5 1 18 -22 10 -36 -22 -41 -18 -2 -34 -3 -36 -2 -2 2 4 17 13 35
9 17 14 38 11 46 -6 16 -36 19 -36 4 0 -5 -5 -10 -11 -10 -7 0 -5 9 4 24 15
22 14 25 -14 52 -33 31 -40 22 -8 -12 19 -21 20 -24 5 -52 -19 -37 -33 -118
-19 -109 12 7 73 -14 73 -25 0 -15 -37 -27 -48 -16 -9 9 -11 3 -9 -20 2 -34
14 -40 36 -19 11 10 11 8 2 -11 -7 -12 -9 -27 -6 -32 4 -6 3 -10 -2 -9 -21 4
-32 -2 -27 -15 3 -8 1 -17 -5 -21 -6 -3 -10 -16 -10 -28 1 -17 2 -18 6 -4 5
19 23 23 23 5 0 -7 -3 -23 -6 -36 -6 -21 -7 -21 -20 -5 -13 17 -13 17 -14 -3
0 -12 3 -35 6 -52 5 -23 10 -28 25 -25 16 4 19 0 19 -26 0 -17 -4 -31 -10 -31
-5 0 -10 -8 -10 -18 0 -10 -13 -31 -30 -45 -52 -46 -80 -130 -60 -179 9 -23 9
-23 9 3 1 34 21 92 35 101 18 12 31 9 18 -4 -7 -7 -12 -16 -12 -22 0 -15 15 3
40 49 l22 40 -22 -20 -23 -20 12 23 c14 27 11 27 66 0 l45 -22 27 20 c39 29
39 41 -2 58 -34 14 -36 18 -30 46 5 23 3 30 -9 30 -10 0 -16 -9 -16 -21 0 -32
-23 -17 -33 22 -20 77 17 249 54 249 6 0 7 -5 3 -11 -4 -7 0 -9 14 -5 22 7 24
-1 35 -114 3 -23 4 -17 5 20 2 43 5 51 14 42 8 -8 13 -38 12 -78 -1 -51 -5
-68 -20 -79 -19 -15 -19 -15 0 -30 11 -8 23 -15 27 -15 22 0 13 235 -12 281
-5 10 -5 30 1 48 10 37 0 79 -30 121 l-22 31 26 24 c32 29 32 35 4 32 -14 -1
-23 4 -26 16 -3 12 3 17 21 17 14 0 28 -6 30 -12 3 -7 6 5 6 27 1 23 -8 57
-19 78 -24 45 -25 54 -3 75 16 16 16 17 0 20 -31 6 -16 28 16 23 7 -1 11 21 7
54 -1 11 -10 35 -21 53 -24 41 -24 47 0 71 25 25 43 92 36 128 -4 15 -14 45
-22 66 -15 35 -15 38 2 57 24 27 32 119 14 172 -10 31 -10 44 -1 59 11 17 9
19 -18 19 -19 0 -30 -5 -30 -14z m-130 -1376 c0 -5 -4 -10 -10 -10 -5 0 -10 5
-10 10 0 6 5 10 10 10 6 0 10 -4 10 -10z m125 -170 c-3 -5 -12 -10 -18 -10 -7
0 -6 4 3 10 19 12 23 12 15 0z"/>
<path d="M5620 10804 c-8 -19 -16 -25 -35 -22 -13 2 -24 -1 -25 -7 0 -5 10
-11 22 -11 24 -2 61 -41 52 -56 -3 -5 -15 -8 -26 -6 -15 2 -26 -9 -45 -45 -14
-26 -22 -54 -19 -63 4 -12 14 -1 34 37 26 48 32 54 59 53 30 -2 31 -1 26 36
-3 20 0 47 7 60 11 20 10 25 -6 37 -25 19 -33 16 -44 -13z"/>
<path d="M5528 10668 c-28 -56 -38 -115 -18 -103 6 3 10 19 10 34 0 16 9 40
21 55 11 14 19 36 17 48 -2 17 -9 10 -30 -34z"/>
<path d="M5603 10572 c-15 -21 -18 -33 -11 -45 11 -21 28 -22 28 -2 0 14 12
20 33 16 14 -2 19 29 7 44 -18 22 -34 18 -57 -13z"/>
<path d="M5571 10431 c-17 -34 -21 -55 -15 -72 4 -13 7 -31 6 -39 -2 -11 1
-10 9 3 6 10 8 25 5 33 -7 18 17 80 41 106 15 17 15 18 -4 18 -14 0 -26 -14
-42 -49z"/>
<path d="M5519 10412 c-7 -25 -8 -51 -3 -69 7 -24 9 -19 14 37 4 36 5 67 4 68
-2 2 -8 -14 -15 -36z"/>
<path d="M5530 10138 c0 -32 3 -39 10 -28 13 20 13 70 0 70 -5 0 -10 -19 -10
-42z"/>
<path d="M5542 9529 l-24 -29 26 11 c14 7 26 20 26 31 0 23 0 23 -28 -13z"/>
<path d="M5465 9439 c-4 -6 -5 -12 -2 -15 2 -3 7 2 10 11 7 17 1 20 -8 4z"/>
<path d="M5752 9436 c7 -8 15 -12 17 -11 5 6 -10 25 -20 25 -5 0 -4 -6 3 -14z"/>
<path d="M5861 9317 c0 -56 -13 -101 -31 -112 -5 -3 -8 -11 -5 -16 3 -5 -11
-46 -32 -91 -22 -48 -40 -102 -42 -128 -2 -25 -5 -48 -7 -52 -3 -4 -9 -52 -13
-106 -8 -93 -29 -164 -39 -134 -3 9 -8 10 -16 2 -7 -5 -34 -13 -60 -16 -38 -6
-46 -4 -46 10 0 9 -5 16 -10 16 -7 0 -7 7 0 20 7 14 8 26 1 38 -9 14 -11 11
-12 -18 -1 -19 -1 -43 0 -52 1 -10 -3 -18 -9 -18 -15 0 -31 46 -23 67 6 16 5
16 -10 4 -9 -7 -17 -10 -17 -6 0 4 -8 1 -17 -6 -10 -7 -15 -10 -11 -5 7 9 -21
46 -35 46 -5 0 -3 -7 4 -16 7 -9 14 -32 15 -51 l2 -34 -31 24 c-18 13 -42 26
-55 29 -34 9 -24 -22 15 -50 29 -20 81 -102 65 -102 -4 0 -18 9 -32 20 -14 11
-33 20 -42 20 -10 0 -18 7 -18 15 0 8 -4 15 -10 15 -23 0 -7 -31 31 -64 34
-29 39 -37 25 -42 -10 -4 -40 8 -76 29 -37 23 -62 32 -66 25 -4 -5 -2 -13 3
-17 6 -3 32 -25 59 -48 27 -23 59 -50 72 -60 21 -16 22 -22 13 -66 -5 -31 -5
-45 1 -39 5 5 11 24 13 42 5 37 18 55 34 46 14 -9 -22 -87 -51 -108 -13 -10
-28 -22 -35 -28 -35 -29 -49 8 -22 56 11 20 19 37 17 39 -2 1 -27 10 -55 19
-29 10 -55 22 -58 27 -8 12 -42 12 -50 -1 -4 -6 11 -18 32 -27 27 -12 33 -18
21 -21 -10 -2 -18 -6 -18 -8 0 -10 28 -34 39 -34 6 0 11 -4 11 -10 0 -10 -7
-12 -45 -14 -11 -1 -21 -9 -23 -21 l-4 -20 16 20 c14 18 15 18 16 3 0 -10 5
-18 11 -18 5 0 7 -5 4 -10 -4 -6 -11 -8 -16 -5 -15 10 -87 -48 -94 -75 -4 -14
-12 -28 -18 -32 -8 -5 -5 -14 10 -30 22 -21 24 -22 40 -5 16 16 16 17 2 12
-10 -4 -20 -2 -24 4 -10 17 41 13 55 -4 10 -12 8 -17 -11 -25 l-24 -11 23 5
c17 3 22 1 18 -9 -3 -8 0 -17 5 -21 7 -4 3 -14 -9 -28 -22 -24 -42 -60 -42
-75 0 -18 24 -12 44 10 13 15 26 20 47 17 17 -3 32 -1 35 4 3 5 10 6 15 3 5
-4 9 -2 9 4 0 5 -5 13 -11 17 -8 4 -7 9 2 15 20 13 29 11 29 -6 0 -8 5 -15 10
-15 6 0 10 7 10 15 0 8 -4 15 -10 15 -5 0 -10 5 -10 10 0 6 -9 20 -19 32 -12
12 -17 27 -13 37 6 13 7 12 10 -6 2 -12 12 -25 23 -28 10 -4 19 -11 19 -16 0
-6 5 -7 10 -4 16 10 12 22 -10 28 -24 6 -27 27 -4 27 8 0 12 -4 9 -10 -9 -15
4 -12 21 4 12 13 11 15 -8 18 -13 2 -22 9 -20 17 3 12 0 12 -13 1 -13 -11 -18
-10 -30 6 -13 16 -16 17 -25 4 -8 -12 -12 -13 -19 -2 -7 11 -12 11 -28 1 -13
-8 -30 -9 -49 -4 l-29 8 30 6 c20 4 26 9 18 14 -23 15 -14 29 13 23 21 -6 25
-4 21 8 -7 18 8 22 18 6 9 -15 25 -12 25 4 0 15 21 26 51 26 10 0 19 5 19 10
0 6 7 10 15 10 8 0 15 -6 15 -12 0 -9 3 -8 9 2 6 8 8 17 5 22 -6 9 32 53 62
73 21 14 21 14 10 -25 -19 -64 -135 -153 -150 -115 -8 21 -23 19 -29 -6 -4
-15 -2 -19 8 -15 8 3 18 -2 23 -11 8 -14 15 -12 54 15 47 32 84 75 112 130 10
19 20 32 22 29 10 -10 14 -57 4 -57 -18 0 -11 -18 10 -23 11 -3 17 -1 14 4 -3
6 0 33 7 62 10 41 13 47 20 31 4 -12 9 -34 10 -50 2 -16 10 -38 19 -48 8 -11
10 -17 5 -13 -13 7 -14 -37 -2 -49 4 -5 5 0 1 11 -6 14 -4 17 8 13 20 -8 25
51 12 137 -4 22 -4 37 0 34 3 -3 7 -18 8 -32 1 -15 6 -27 11 -27 4 0 6 -4 2
-9 -3 -5 0 -13 6 -17 8 -4 7 -9 -2 -15 -11 -7 -9 -9 5 -9 20 0 20 0 0 -15 -19
-14 -19 -15 4 -21 12 -3 22 -13 22 -20 0 -8 5 -14 11 -14 7 0 5 -9 -4 -24 -14
-21 -15 -26 -1 -37 8 -6 18 -9 21 -5 4 4 1 11 -7 16 -8 5 -11 13 -6 17 5 4 11
2 13 -5 3 -6 9 -10 14 -6 15 9 10 -12 -5 -25 -10 -9 -12 -20 -6 -42 5 -16 5
-29 0 -29 -5 0 -14 -9 -20 -20 -8 -16 -8 -24 4 -35 11 -11 12 -23 5 -52 -5
-21 -11 -74 -14 -118 -2 -44 -11 -93 -19 -110 -8 -16 -17 -38 -20 -47 -4 -15
-45 -48 -102 -85 -18 -11 -17 -11 3 -6 12 3 28 11 34 19 14 17 29 18 29 2 0
-7 -17 -23 -38 -35 -31 -18 -33 -22 -15 -23 12 0 25 5 28 10 3 6 11 10 17 10
6 0 4 -8 -5 -18 -10 -10 -14 -21 -11 -25 3 -3 -2 -4 -13 -3 -10 2 -12 1 -5 -1
7 -3 10 -9 7 -14 -3 -5 2 -6 12 -3 16 5 16 4 -1 -10 -13 -10 -15 -16 -7 -16
11 0 11 -3 1 -15 -11 -13 -10 -14 4 -9 30 12 16 -7 -16 -21 -18 -8 -27 -14
-20 -15 7 0 22 5 34 11 11 6 22 8 25 5 4 -3 -10 -13 -30 -21 -47 -19 -47 -25
-2 -15 19 4 35 5 35 0 0 -11 -33 -37 -55 -43 -11 -3 1 -3 28 0 38 4 47 2 47
-10 0 -9 -12 -25 -26 -36 -15 -12 -21 -21 -13 -21 7 0 26 12 41 27 28 26 37
18 19 -16 -6 -10 -6 -23 -1 -31 7 -11 11 -8 19 13 6 16 11 33 11 38 0 5 10 9
23 9 12 0 47 14 77 30 135 74 160 83 188 70 19 -8 27 -9 30 -1 5 14 68 4 98
-16 11 -7 24 -10 28 -6 4 5 6 -1 4 -12 -2 -15 3 -20 20 -20 13 0 28 -8 33 -18
15 -26 0 -84 -27 -102 -41 -27 -59 -19 -89 40 -24 47 -31 55 -56 55 -24 0 -29
4 -29 23 0 30 -24 64 -34 48 -4 -6 0 -14 8 -17 9 -3 16 -10 16 -16 0 -12 -52
-57 -66 -58 -6 0 -17 -7 -24 -15 -7 -9 -15 -13 -18 -10 -8 8 -32 -16 -32 -31
0 -20 -28 -45 -83 -74 -26 -14 -47 -28 -47 -32 0 -12 -48 -10 -71 3 -11 6 -18
16 -16 23 3 7 -12 23 -33 36 -32 20 -41 34 -64 101 -14 43 -31 114 -37 156 -6
43 -17 96 -26 118 -10 27 -11 41 -4 43 6 2 8 8 5 14 -3 5 -6 105 -7 221 0 169
-3 217 -15 235 -13 20 -13 25 3 42 13 14 15 24 8 31 -13 13 -33 -36 -28 -71 2
-14 4 -25 5 -25 1 0 3 -67 6 -148 l4 -148 -22 3 c-13 2 -28 -4 -35 -12 -10
-13 -12 -10 -13 17 0 18 6 38 13 45 8 7 13 19 11 28 -2 8 -6 33 -9 55 l-7 40
-19 -24 c-10 -13 -16 -28 -12 -35 5 -7 9 -5 11 7 2 9 8 15 13 12 13 -9 11 -75
-2 -75 -6 0 -9 9 -6 20 3 11 1 20 -4 20 -5 0 -9 -7 -9 -15 0 -8 -4 -15 -10
-15 -5 0 -9 10 -7 21 1 12 -4 24 -12 27 -10 3 -12 0 -8 -12 4 -9 2 -16 -3 -16
-18 0 -10 -19 10 -25 11 -4 18 -11 15 -16 -5 -7 -36 2 -53 16 -7 6 29 65 38
65 6 0 10 4 10 9 0 16 -86 7 -103 -11 -10 -10 -13 -19 -8 -23 14 -8 2 -36 -26
-60 -33 -30 -28 -36 16 -20 29 10 42 11 51 2 10 -9 12 -8 7 5 -8 23 8 32 26
14 8 -8 17 -12 21 -9 3 4 6 1 6 -7 0 -10 3 -10 14 -1 9 8 16 8 20 2 4 -6 -2
-15 -13 -20 -14 -8 -20 -8 -23 1 -3 8 -9 8 -24 0 -10 -6 -13 -12 -6 -12 6 0
12 -6 12 -14 0 -8 5 -16 11 -18 12 -4 -75 -88 -91 -88 -15 0 21 48 42 55 9 3
22 13 30 22 11 15 11 16 -4 10 -12 -4 -15 -2 -11 9 6 17 -19 19 -48 3 -17 -8
-23 -7 -35 8 -13 17 -13 16 -15 -7 l-1 -25 -8 25 c-8 28 -8 27 -34 -53 -20
-59 -20 -68 -1 -61 9 4 13 13 10 23 -4 14 1 17 28 17 30 -1 33 -3 23 -19 -6
-10 -27 -22 -47 -27 -31 -9 -38 -17 -65 -80 -16 -38 -34 -70 -39 -70 -6 0 -16
27 -23 59 -7 33 -21 70 -32 83 l-19 23 8 -37 c10 -43 -3 -55 -33 -29 -14 12
-20 13 -23 4 -5 -14 -34 -18 -32 -5 4 25 -3 42 -19 42 -15 0 -18 -6 -14 -30 2
-16 8 -30 12 -30 5 0 6 -9 3 -21 -4 -12 -11 -18 -20 -15 -25 10 -31 -2 -23
-43 9 -49 3 -57 -38 -56 -42 1 -75 44 -34 46 14 0 14 2 -3 9 -12 4 -27 15 -34
24 -11 14 -16 14 -24 4 -6 -9 -7 -8 -3 5 3 10 0 17 -8 17 -17 0 -27 -45 -13
-59 11 -11 0 -34 -15 -29 -13 5 -20 78 -7 78 4 0 6 7 3 15 -4 8 -1 22 6 29 10
13 14 12 29 -3 10 -10 20 -24 23 -33 4 -9 19 -20 35 -26 36 -12 57 1 67 43 l7
30 -20 -32 c-22 -36 -42 -41 -61 -18 -8 10 -9 15 -2 15 6 0 0 11 -13 24 -21
21 -23 28 -14 63 5 21 15 48 21 61 12 24 34 31 25 7 -4 -8 -2 -17 3 -20 5 -3
19 -26 30 -52 17 -39 22 -44 35 -33 12 10 13 15 4 21 -10 6 -6 22 16 66 15 32
35 74 43 93 11 24 17 30 19 18 3 -12 -33 -101 -64 -159 -7 -13 69 18 78 32 5
8 9 28 9 46 0 17 5 44 11 60 6 15 12 39 14 51 3 32 37 76 61 81 29 5 54 32 54
57 0 24 -34 66 -61 76 -11 4 -18 23 -21 59 -4 35 -11 57 -24 66 -27 20 -34 16
-34 -17 0 -23 -5 -31 -26 -36 -17 -5 -29 -1 -37 10 -12 16 -14 16 -31 -3 -12
-13 -14 -21 -7 -21 18 0 -12 -40 -40 -54 -12 -6 -23 -21 -24 -33 -2 -30 3 -29
15 2 6 16 14 23 25 19 17 -7 18 -13 5 -34 -9 -13 -10 -13 -10 0 -1 26 -20 -11
-21 -40 0 -23 -1 -24 -10 -5 -8 17 -9 16 -6 -7 3 -16 0 -28 -4 -28 -18 0 -8
-48 15 -75 17 -20 29 -25 45 -20 24 7 28 23 7 31 -8 3 -12 13 -9 25 5 20 29
24 70 13 19 -5 21 -10 12 -25 -5 -10 -17 -19 -27 -20 -16 0 -16 -1 0 -7 15 -6
15 -11 1 -52 -9 -25 -24 -56 -34 -69 -11 -13 -19 -34 -19 -47 0 -13 -4 -24
-10 -24 -8 0 -8 59 2 129 2 13 -2 26 -7 28 -6 1 -10 -11 -10 -29 0 -17 -5 -33
-12 -35 -8 -3 -10 9 -7 36 4 45 -11 55 -25 18 -5 -13 -16 -29 -24 -35 -9 -8
-14 -23 -11 -39 3 -17 1 -24 -8 -20 -7 2 -12 11 -10 21 2 9 -2 16 -8 16 -5 0
-10 -12 -10 -26 0 -14 4 -23 10 -19 6 3 10 -3 10 -14 0 -30 -19 -73 -29 -67
-12 8 -41 -67 -41 -107 0 -53 10 -76 28 -69 14 5 15 3 5 -10 -15 -17 -7 -29
13 -21 8 3 14 0 14 -7 0 -9 11 -10 38 -5 l37 7 -28 -22 c-26 -21 -27 -23 -10
-36 10 -7 24 -14 32 -14 10 0 9 4 -5 14 -10 8 -15 18 -11 22 4 5 11 4 15 -2 9
-14 52 -11 61 5 5 8 15 9 32 2 18 -7 20 -10 9 -14 -41 -15 -42 -17 -2 -13 35
4 41 2 32 -9 -7 -8 -9 -19 -6 -24 4 -5 2 -12 -3 -16 -6 -3 -8 -12 -4 -20 3
-10 -1 -15 -13 -15 -12 0 -27 15 -39 37 -33 60 -45 53 -30 -19 8 -34 11 -66 9
-70 -6 -9 74 -92 103 -107 12 -6 41 -11 65 -10 24 0 58 -4 76 -10 34 -10 99
-4 108 10 3 5 10 9 16 9 6 0 8 -3 4 -7 -4 -4 7 -12 24 -18 l30 -10 -30 -36
-30 -37 34 8 c43 9 59 1 41 -23 -7 -10 -17 -17 -21 -16 -5 1 -26 1 -46 0 -28
-1 -36 -5 -32 -15 4 -11 0 -13 -17 -9 -14 4 -26 0 -33 -9 -6 -8 -18 -15 -26
-15 -31 0 -156 -24 -169 -33 -9 -5 11 -14 60 -25 l74 -16 25 -57 c26 -60 142
-238 169 -259 14 -11 13 -13 -6 -19 -13 -3 -23 -12 -23 -19 0 -7 -6 -18 -14
-24 -12 -10 -13 -19 -2 -54 16 -50 37 -97 45 -98 52 -12 84 -1 117 39 13 16
23 21 28 14 3 -6 -13 -27 -39 -49 -25 -20 -43 -43 -41 -50 4 -8 -3 -13 -18
-13 -24 0 -38 -12 -49 -43 -6 -16 -5 -16 17 -2 12 8 26 12 31 8 4 -5 5 -3 1 4
-4 7 9 18 34 29 22 10 40 21 40 24 0 4 11 12 25 18 19 9 23 9 19 -3 -3 -7 -1
-23 6 -34 13 -25 3 -27 -22 -4 -20 18 -25 4 -6 -15 17 -17 1 -27 -18 -11 -15
12 -16 11 -10 -9 8 -24 -3 -29 -22 -10 -9 9 -12 9 -12 -4 0 -25 -41 -72 -51
-57 -5 9 -13 2 -28 -21 -11 -19 -18 -36 -16 -38 3 -3 28 13 57 35 64 49 98 67
98 54 0 -6 -8 -15 -17 -20 -10 -6 -15 -11 -10 -11 4 0 0 -11 -9 -25 -8 -13
-13 -29 -10 -34 4 -5 2 -12 -4 -16 -5 -3 -10 -14 -10 -23 0 -10 -12 -35 -26
-56 -25 -37 -28 -38 -40 -21 -12 16 -14 17 -14 2 0 -10 -5 -14 -15 -11 -12 5
-13 2 -7 -17 5 -12 16 -23 26 -25 15 -2 15 0 4 14 -11 13 -10 15 5 9 17 -6 57
11 57 24 0 4 19 39 41 78 l42 71 25 -16 c13 -9 22 -11 18 -5 -4 5 4 17 18 26
23 16 48 53 25 39 -6 -3 -5 3 2 14 7 12 16 19 20 16 17 -10 31 59 25 124 l-7
67 62 33 c34 18 64 30 68 27 3 -3 -1 -10 -9 -15 -11 -7 -7 -10 16 -10 23 0 39
-10 65 -38 43 -48 61 -80 54 -92 -7 -11 18 -40 34 -40 6 0 11 -5 11 -10 0 -6
-6 -9 -12 -8 -7 2 -13 -4 -13 -12 0 -21 72 -16 97 6 25 23 23 32 -6 27 -13 -3
-32 -1 -42 5 -15 9 -14 12 14 26 39 20 43 41 7 32 -34 -9 -55 12 -44 42 5 12
14 19 22 17 7 -3 24 7 37 21 14 15 19 24 11 19 -11 -6 -13 -4 -8 8 3 9 -1 18
-10 21 -9 4 -13 9 -9 13 3 3 -2 15 -11 26 -17 19 -17 19 2 15 11 -2 46 8 78
24 31 16 57 24 57 18 0 -5 -4 -10 -8 -10 -18 0 -93 -61 -87 -70 3 -6 28 -1 58
10 52 20 91 27 72 12 -12 -9 -13 -35 -1 -43 5 -4 -6 -10 -25 -14 -40 -9 -103
-41 -120 -61 -15 -18 -7 -18 39 3 20 9 44 17 52 18 8 1 30 5 48 9 51 12 38 -1
-43 -40 -82 -39 -93 -51 -30 -30 68 23 95 27 95 16 0 -6 -5 -8 -12 -4 -7 5 -8
3 -3 -6 5 -9 -2 -21 -21 -37 -24 -21 -26 -24 -7 -18 16 4 22 1 25 -12 6 -28
-41 -50 -131 -63 -45 -7 -81 -16 -81 -21 0 -5 6 -18 13 -29 10 -17 9 -22 -1
-29 -8 -4 -13 -11 -13 -15 2 -16 -13 -67 -20 -72 -5 -3 -9 -10 -9 -15 0 -6 5
-7 11 -3 7 4 2 -6 -9 -22 -22 -30 -72 -173 -72 -205 0 -10 -5 -21 -11 -25 -6
-3 -9 -17 -6 -30 2 -13 1 -24 -3 -24 -9 0 -22 -53 -24 -92 -1 -31 4 -34 23
-15 11 10 13 10 7 0 -5 -9 1 -13 21 -14 27 0 27 -1 6 -9 -28 -12 -30 -24 -3
-17 27 7 25 -3 -8 -42 -24 -29 -31 -32 -49 -23 -16 9 -24 8 -37 -7 -9 -9 -16
-23 -16 -29 0 -6 -8 -16 -17 -21 -14 -8 -15 -11 -3 -12 8 0 -3 -9 -24 -19
l-39 -18 74 -6 c41 -4 103 -6 139 -4 70 2 160 -9 160 -20 -1 -14 -27 -42 -33
-35 -4 3 -7 -3 -7 -14 0 -12 -6 -24 -12 -27 -10 -4 -10 -8 -2 -11 7 -3 10 -15
7 -26 -3 -10 0 -26 7 -34 6 -8 9 -18 6 -24 -3 -5 -2 -21 4 -35 6 -17 6 -26 0
-26 -13 0 -13 -43 1 -57 7 -7 7 -27 1 -61 -7 -41 -6 -54 7 -66 14 -15 12 -16
-15 -16 -16 0 -35 5 -42 12 -8 8 -12 9 -12 1 0 -6 -3 -19 -6 -27 -5 -12 -2
-15 12 -10 17 5 17 4 -1 -7 -12 -8 -64 -14 -140 -15 -190 -4 -217 17 -230 178
-7 80 -4 99 21 178 3 8 4 15 3 15 -1 0 3 10 10 23 7 13 8 22 2 22 -6 0 -8 7
-5 15 4 8 10 12 15 9 5 -3 9 0 9 7 0 19 -33 38 -67 39 -36 0 -53 -21 -53 -64
0 -14 -4 -28 -10 -31 -5 -3 -10 -37 -10 -76 0 -38 -4 -69 -9 -69 -11 0 -20 83
-11 90 4 3 4 14 0 25 -7 19 -8 18 -14 -5 -11 -48 -14 -209 -4 -247 5 -21 9
-46 9 -55 0 -23 16 -30 114 -47 88 -15 132 -53 104 -87 -6 -8 -8 -34 -4 -66
13 -111 12 -193 -2 -215 -10 -14 -11 -23 -4 -28 16 -9 13 -25 -4 -25 -8 0 -15
-4 -15 -9 0 -5 -3 -17 -7 -27 -5 -13 -3 -16 10 -11 9 3 17 2 17 -3 0 -6 -4
-10 -8 -10 -9 0 -10 -3 -13 -57 -1 -18 -6 -30 -11 -27 -4 3 -8 -2 -8 -10 0
-19 27 -46 47 -46 13 0 13 -3 3 -15 -7 -8 -19 -15 -26 -15 -30 0 -12 -20 19
-21 l32 -1 -30 -9 c-16 -5 -39 -6 -50 -3 -17 6 -17 4 4 -15 13 -11 19 -21 13
-21 -7 0 -12 -4 -12 -9 0 -11 114 -43 118 -32 3 10 110 3 133 -10 10 -5 41 -9
69 -9 31 0 57 -6 66 -14 7 -8 19 -17 26 -20 10 -5 10 -7 1 -12 -16 -7 -17 -34
-2 -34 5 0 8 -4 4 -9 -23 -38 -585 -35 -585 2 0 6 3 8 6 4 9 -8 75 54 68 64
-8 14 -74 10 -119 -6 -22 -8 -63 -15 -92 -15 -44 0 -53 -3 -58 -21 -4 -12 -3
-25 2 -30 26 -26 317 -46 655 -44 93 0 158 -3 147 -7 -17 -7 -19 -11 -9 -23 7
-8 17 -12 22 -9 7 4 7 0 0 -12 -5 -11 -7 -24 -5 -31 2 -6 -6 -18 -17 -26 -16
-11 -18 -16 -8 -20 7 -3 -4 -6 -26 -6 -30 -1 -37 -4 -32 -16 3 -9 0 -15 -9
-15 -9 0 -12 6 -9 15 4 9 0 15 -10 15 -9 0 -16 -4 -16 -9 0 -4 -12 -7 -27 -5
-15 1 -33 -2 -40 -8 -9 -7 -13 -7 -13 1 0 15 -27 14 -33 -1 -4 -10 -6 -9 -6 1
-1 11 -4 11 -16 1 -20 -17 -360 -9 -377 8 -9 9 -7 12 8 13 17 0 17 1 -3 9 -13
5 -23 16 -23 25 0 8 -6 15 -12 16 -7 0 4 6 26 12 21 7 38 15 37 20 -3 20 0 27
14 27 8 0 15 4 15 10 0 16 -65 22 -109 10 -23 -6 -51 -8 -61 -5 -12 4 -20 2
-20 -4 0 -6 8 -11 17 -11 15 0 14 -2 -3 -15 -10 -8 -38 -15 -61 -15 -38 0 -42
-3 -48 -29 -5 -23 -13 -31 -33 -33 -24 -3 -21 -6 28 -30 74 -35 102 -40 240
-40 164 0 222 -8 226 -32 2 -16 -3 -18 -52 -14 -30 3 -54 1 -54 -4 0 -7 136
-14 165 -8 35 6 391 -2 399 -10 7 -7 -9 -10 -45 -11 -29 0 -67 -2 -84 -4 -121
-15 -657 2 -688 22 -7 4 -52 11 -102 15 -49 4 -108 9 -130 13 -36 5 -37 4 -15
-6 14 -6 36 -16 49 -23 l24 -11 -22 -3 c-21 -3 -22 -7 -16 -40 4 -20 11 -40
17 -43 6 -4 8 -24 6 -45 -14 -111 -42 -264 -54 -299 -20 -53 -46 -145 -48
-169 -2 -10 -10 -24 -19 -31 -41 -30 -10 -43 128 -54 71 -6 76 -8 45 -15 -19
-5 -43 -14 -53 -21 -21 -15 -67 -8 -74 11 -6 16 -53 19 -53 4 0 -5 -3 -9 -7
-8 -16 3 -43 -15 -43 -27 0 -15 25 -21 128 -30 68 -7 112 -25 58 -25 -18 0
-24 -4 -20 -15 4 -8 1 -15 -6 -15 -7 0 -11 -16 -9 -48 1 -26 -1 -53 -5 -60
-10 -16 3 -79 20 -93 28 -23 13 -29 -71 -29 -50 0 -85 -4 -85 -10 0 -5 -8 -10
-18 -10 -10 0 -23 -5 -30 -12 -6 -6 -15 -8 -19 -3 -5 4 -2 10 5 12 20 7 14 20
-15 31 -52 20 -81 22 -86 9 -7 -19 8 -41 22 -33 6 4 11 1 11 -7 0 -8 18 -19
40 -26 40 -12 332 -53 360 -50 8 1 67 1 130 0 109 -2 114 -3 87 -17 -19 -10
-27 -21 -23 -31 3 -8 6 -18 7 -21 1 -4 4 4 8 18 4 16 15 26 31 29 14 1 28 8
32 15 6 8 13 8 28 -2 11 -6 25 -12 32 -12 10 0 9 3 -1 9 -9 6 11 9 53 10 44 0
65 -3 61 -10 -4 -5 -14 -9 -23 -8 -10 1 -25 1 -36 0 -15 -1 -16 -4 -6 -16 8
-9 18 -12 27 -6 20 11 63 -9 62 -29 0 -10 -2 -11 -6 -3 -5 15 -82 7 -98 -10
-7 -7 -6 -8 3 -3 7 4 24 -2 38 -13 15 -12 38 -21 51 -21 18 0 24 -4 19 -15 -4
-11 2 -15 27 -15 21 0 28 3 19 9 -10 6 -7 10 12 15 14 3 26 13 26 21 0 8 9 15
20 15 11 0 20 4 20 9 0 5 9 7 20 4 19 -5 20 -7 5 -29 -15 -23 -14 -23 28 -27
40 -3 39 -4 -10 -5 -89 -3 -59 -17 40 -18 349 -5 346 -5 297 -19 -41 -13 -31
-14 115 -9 380 11 690 38 792 71 67 21 79 28 68 39 -9 10 -22 11 -44 4 -17 -5
-56 -6 -86 -3 -47 5 -55 3 -55 -11 0 -22 -17 -20 -25 3 -9 28 -64 10 -65 -21
0 -15 29 -8 39 10 9 15 10 16 11 0 0 -18 -29 -32 -52 -23 -10 4 -13 16 -10 35
2 17 0 30 -6 30 -5 0 -13 11 -16 25 -4 15 -11 22 -20 19 -8 -3 -17 -1 -20 4
-3 6 1 12 9 16 31 11 13 26 -32 27 -53 1 -51 2 60 20 52 8 77 16 77 25 0 8 9
14 19 14 21 0 37 17 27 27 -3 4 -25 0 -48 -7 -64 -19 -88 -21 -81 -4 6 16 -22
20 -32 4 -11 -18 -35 -11 -35 10 0 23 -10 26 -28 8 -9 -9 -12 -9 -12 0 0 7 -7
12 -15 12 -9 0 -20 10 -25 22 -13 31 -47 69 -58 66 -6 -2 -10 0 -11 5 0 4 -10
17 -21 29 -15 16 -17 25 -9 35 9 10 8 13 -5 13 -10 0 -16 9 -17 23 0 12 -2 30
-4 40 -3 14 4 17 38 16 23 0 36 -3 30 -6 -17 -6 -16 -23 1 -23 8 0 16 7 19 15
4 8 32 22 64 31 68 19 82 29 65 46 -9 9 -15 10 -20 2 -10 -15 -72 -26 -72 -13
0 7 -10 9 -24 5 -28 -7 -58 2 -50 15 3 5 -4 9 -15 9 -23 0 -28 -15 -8 -23 6
-3 -4 -5 -23 -6 -26 0 -30 2 -16 8 19 7 18 8 -5 16 -19 7 -11 9 40 12 45 3 67
0 74 -9 6 -10 7 -9 4 4 -5 12 2 18 26 24 17 3 39 11 48 17 22 14 13 40 -9 28
-10 -5 -40 -12 -69 -16 -46 -6 -53 -4 -65 14 -16 26 -30 28 -22 4 4 -13 3 -15
-4 -5 -5 8 -8 30 -6 50 1 20 -2 42 -7 48 -24 29 -63 295 -56 379 3 34 50 76
85 77 18 1 30 3 28 5 -2 3 2 19 9 36 12 29 11 33 -12 55 -27 25 -42 28 -83 17
l-25 -6 25 15 c32 19 54 20 70 1 6 -8 25 -13 41 -12 39 3 37 16 -2 15 -19 -1
-37 6 -44 15 -7 10 -20 14 -36 11 -19 -4 -16 -1 10 14 32 18 33 20 14 26 -12
4 -24 14 -27 22 -3 8 -10 12 -16 9 -6 -4 -7 -12 -3 -18 5 -8 2 -8 -8 0 -9 7
-32 14 -52 15 -37 3 -42 10 -39 51 1 11 -5 17 -18 17 -36 0 -18 45 28 69 33
18 27 30 -15 28 -27 -1 -44 4 -58 19 -11 11 -29 26 -40 32 -11 6 -14 12 -7 12
6 0 12 5 12 11 0 7 -10 9 -24 5 -21 -5 -24 -3 -21 14 5 24 -45 64 -53 42 -4
-14 -22 -16 -22 -3 0 5 16 15 35 21 41 14 36 34 -6 25 -24 -5 -28 -4 -23 9 5
13 -3 16 -42 17 -27 1 -64 1 -81 0 -49 -4 -63 10 -28 25 17 7 24 13 18 14 -18
0 -16 20 1 20 7 0 20 8 27 17 10 12 10 15 1 9 -16 -9 -54 2 -47 15 4 5 2 9 -4
9 -6 0 -20 33 -32 73 -19 59 -23 98 -23 214 -1 130 1 144 21 171 18 24 19 29
6 28 -9 0 -18 5 -20 12 -3 6 2 12 11 12 9 0 16 5 16 10 0 6 9 10 19 10 11 0
23 5 26 10 11 18 23 10 18 -12 -4 -20 -3 -21 7 -5 6 9 20 17 30 17 11 0 19 3
18 8 -1 4 4 27 11 52 13 44 12 77 -5 273 -5 55 -4 77 5 77 56 0 -102 69 -162
71 l-32 1 33 12 c18 6 30 15 26 19 -4 4 -2 7 4 7 7 0 12 7 12 15 0 9 -6 12
-16 8 -14 -5 -16 -2 -10 20 4 18 2 27 -5 27 -8 0 -8 5 1 15 11 13 10 14 -5 9
-14 -6 -16 -3 -10 16 4 14 3 20 -3 16 -5 -3 -12 3 -15 13 -3 13 0 18 7 15 16
-6 18 85 2 105 -8 11 -8 13 2 7 7 -4 12 -1 12 8 0 9 -4 16 -10 16 -16 0 -12
27 9 61 10 17 16 39 14 50 -3 11 11 46 36 87 23 38 49 87 58 110 9 23 19 42
22 42 3 0 15 7 26 16 16 12 17 16 6 23 -11 7 -9 11 9 21 13 7 18 15 13 19 -6
3 -8 25 -4 51 5 36 11 45 31 51 l25 7 -28 1 c-25 1 -26 3 -15 23 7 13 20 28
28 35 13 11 12 12 -8 13 -20 0 -23 4 -21 33 2 20 -1 31 -8 30 -7 -2 -10 4 -7
12 4 8 13 15 21 15 10 0 13 6 9 16 -3 9 -6 18 -6 20 0 2 -6 4 -13 4 -8 0 -19
12 -26 26 -11 26 -11 26 19 22 39 -6 38 4 -2 37 l-33 27 38 -7 38 -6 -28 31
c-17 20 -34 29 -45 27 -16 -5 -16 -2 4 26 12 18 23 34 25 36 1 2 9 -2 18 -9 8
-7 15 -8 15 -2 0 5 -7 15 -15 22 -8 7 -15 26 -15 42 0 22 -4 28 -17 26 -16 -3
-18 6 -18 72 0 63 -3 75 -16 74 -13 -1 -16 6 -14 32 3 31 2 32 -21 23 -53 -19
-66 -30 -61 -50 3 -10 1 -22 -4 -25 -11 -6 -12 6 -10 63 2 30 -2 44 -14 51
-16 8 -16 9 -1 15 12 5 15 3 10 -6 -5 -9 -4 -9 6 0 11 10 11 15 -1 30 -13 16
-12 17 2 5 9 -7 25 -9 34 -5 14 5 17 3 12 -10 -3 -9 -2 -17 3 -17 13 0 13 46
0 70 -5 10 -12 46 -14 80 -3 34 -8 65 -11 68 -3 3 -5 0 -5 -6 0 -20 -17 -14
-23 8 -3 10 1 25 9 31 24 19 8 22 -26 4 -43 -22 -49 -13 -10 15 31 22 60 21
60 -2 0 -8 5 -6 11 4 9 16 12 17 34 2 35 -23 47 -67 34 -121 -15 -58 -6 -67
72 -69 33 -2 67 -8 74 -14 8 -7 18 -9 23 -6 6 3 17 -5 26 -19 9 -14 23 -25 31
-25 23 0 55 74 64 148 9 73 7 83 -21 124 -23 33 -26 149 -3 171 8 8 11 18 7
22 -4 5 -2 5 4 2 6 -4 19 2 28 12 17 19 35 18 158 -10 51 -12 64 -11 110 5 61
21 276 124 283 136 3 5 -13 -1 -36 -11 -22 -11 -46 -18 -52 -16 -7 2 0 10 16
17 15 7 27 17 27 21 0 4 -17 -2 -37 -12 -23 -12 -39 -15 -41 -9 -2 6 -15 1
-29 -10 -14 -11 -33 -20 -42 -20 -14 0 -14 -2 -1 -10 14 -9 13 -11 -9 -14 -5
0 -12 -4 -16 -8 -4 -4 -12 -5 -18 -3 -7 2 -24 6 -39 9 -37 8 -53 58 -37 119
10 43 13 45 52 49 23 3 45 0 49 -6 4 -6 14 -6 30 2 l23 12 -25 -5 -25 -5 23
12 c18 9 25 9 31 -1 11 -16 61 3 61 24 0 16 -13 16 -113 -5 -21 -4 -46 -6 -57
-3 -11 3 -20 0 -20 -6 0 -6 -4 -11 -10 -11 -5 0 -7 7 -3 16 4 11 -1 22 -12 30
-24 18 -49 18 -39 2 5 -10 4 -10 -5 -2 -8 8 -25 9 -49 3 -20 -5 -65 -9 -98 -9
-57 0 -62 2 -68 24 -10 39 9 76 38 76 34 0 53 35 29 49 -15 9 -14 10 11 11 26
0 28 -2 21 -27 -5 -22 -4 -25 6 -16 14 14 -2 92 -26 126 -10 14 -11 25 -4 39
8 15 5 20 -17 30 -22 10 -28 10 -32 0 -2 -6 -8 -12 -13 -12 -4 0 -6 6 -3 13 5
15 -57 43 -111 50 -16 2 2 4 41 4 39 1 81 4 93 8 11 3 21 2 21 -3 0 -5 14 -15
30 -22 17 -7 30 -17 30 -22 0 -5 5 -6 10 -3 18 11 10 39 -20 74 -29 34 -30 34
-49 17 -11 -10 -26 -16 -33 -13 -8 3 -5 6 7 7 20 1 20 1 0 9 -13 5 -23 3 -30
-5 -8 -11 -18 -12 -48 -3 -21 6 -53 9 -70 8 -52 -3 -77 0 -77 11 0 6 11 8 24
6 32 -6 134 18 149 34 10 10 -3 11 -61 6 -41 -3 -82 -10 -91 -15 -10 -6 -23
-6 -31 -1 -12 7 -11 10 5 15 11 4 37 16 57 26 64 34 142 56 176 51 18 -2 46
-17 62 -32 25 -23 30 -25 30 -10 0 10 -14 25 -32 34 -18 9 -43 24 -56 33 -20
16 -21 21 -11 49 18 46 5 81 -39 102 l-37 17 0 65 0 65 -40 -2 c-22 -2 -41 -7
-43 -13 -2 -5 -8 -10 -14 -10 -7 0 -7 5 1 13 6 8 8 17 4 21 -4 3 -6 28 -4 56
2 57 -16 75 -65 60 -16 -4 -22 -9 -13 -9 42 -2 62 -90 26 -116 -9 -7 -15 -14
-12 -16 4 -5 -80 -99 -89 -99 -3 0 4 19 14 43 22 48 25 67 9 67 -11 0 -40 -25
-39 -35 1 -19 -1 -25 -10 -25 -5 0 -8 10 -6 23 3 12 5 22 6 22 1 0 3 15 6 33
2 18 8 41 14 52 7 12 4 33 -9 71 -16 47 -21 54 -47 57 l-29 2 21 -18 c12 -10
28 -31 36 -48 14 -27 13 -33 -13 -88 l-28 -59 1 42 c0 47 -7 60 -24 43 -7 -7
-18 -12 -26 -12 -10 0 -8 5 6 18 11 9 23 35 27 57 4 22 3 36 -2 32 -4 -5 -9
-13 -9 -18 -3 -22 -5 -23 -14 -9 -6 10 -4 21 8 34 16 18 16 18 -5 7 -12 -6
-25 -16 -28 -21 -11 -18 -43 -11 -50 11 -4 11 -9 18 -12 15 -8 -7 -33 41 -33
63 0 9 4 21 8 27 16 17 46 109 48 146 1 20 7 44 14 55 10 16 11 16 6 1 -3 -10
-1 -18 5 -18 7 0 9 10 5 25 -4 14 -3 31 0 37 12 19 16 125 6 132 -6 3 -10 -16
-11 -47z m383 -633 c35 -34 3 -94 -80 -149 -31 -21 -66 -47 -76 -57 -37 -37
-29 -10 9 29 41 44 79 103 66 103 -5 0 -29 -20 -53 -45 -35 -35 -46 -42 -52
-31 -12 22 69 155 91 149 9 -2 27 0 41 6 34 13 36 13 54 -5z m-724 -54 c11 0
20 -7 20 -15 0 -20 30 -19 47 3 8 9 12 12 9 5 -4 -6 -2 -14 4 -18 6 -3 13 1
16 9 8 20 30 21 38 1 3 -9 -3 -19 -15 -25 -20 -11 -177 -16 -187 -6 -3 3 2 14
11 24 10 10 17 29 18 43 l0 24 9 -22 c6 -13 18 -23 30 -23z m174 -41 c-5 -9
-34 -13 -34 -5 0 2 3 12 6 20 5 13 9 14 20 5 8 -6 11 -15 8 -20z m26 16 c0 -8
-2 -15 -4 -15 -2 0 -6 7 -10 15 -3 8 -1 15 4 15 6 0 10 -7 10 -15z m578 -55
c27 -17 32 -26 32 -58 0 -21 -6 -46 -12 -55 -14 -17 -178 -60 -178 -46 0 4 8
10 18 13 9 4 35 22 57 41 50 43 27 46 -38 5 -56 -35 -60 -31 -12 12 20 17 34
36 32 42 -5 13 41 66 57 66 6 0 26 -9 44 -20z m-720 -6 c-2 -10 3 -19 11 -22
10 -3 12 0 8 11 -3 9 -2 19 3 22 6 4 10 0 10 -7 0 -7 7 -22 16 -33 13 -17 16
-18 24 -5 7 12 12 12 22 2 25 -25 -9 -33 -149 -36 l-141 -2 21 27 c17 24 27
28 64 27 29 -2 43 -7 43 -16 0 -8 6 -12 13 -9 6 2 11 10 9 16 -1 7 2 10 8 6 6
-3 8 -11 5 -16 -4 -5 -2 -9 3 -9 16 0 22 13 11 26 -11 14 -4 34 12 34 5 0 9
-7 7 -16z m132 -50 c0 -8 -6 -14 -14 -14 -9 0 -12 7 -9 20 6 22 23 18 23 -6z
m27 -16 c-15 -9 -19 -4 -11 16 5 14 9 15 15 5 5 -8 3 -17 -4 -21z m71 7 c-3
-3 -9 2 -12 12 -6 14 -5 15 5 6 7 -7 10 -15 7 -18z m-248 -35 c0 -5 -5 -10
-11 -10 -5 0 -7 5 -4 10 3 6 8 10 11 10 2 0 4 -4 4 -10z m129 -57 c-1 -5 -1
-21 0 -37 1 -21 5 -27 16 -22 13 4 14 2 5 -14 -6 -11 -15 -20 -21 -20 -6 0 -8
4 -5 8 3 4 1 25 -3 45 -5 20 -6 38 -3 41 8 8 12 7 11 -1z m26 -113 c3 -6 -1
-7 -9 -4 -18 7 -21 14 -7 14 6 0 13 -4 16 -10z m245 -80 c0 -5 -3 -10 -7 -10
-5 0 -8 -41 -8 -90 0 -49 -1 -90 -3 -90 -2 0 -11 7 -19 16 -14 14 -15 25 -5
91 7 41 15 79 18 84 7 12 24 11 24 -1z m153 -14 c-4 -6 -6 -19 -5 -28 2 -11
-3 -18 -13 -18 -9 0 -13 4 -10 10 3 5 1 18 -4 29 -9 16 -7 19 14 19 16 0 22
-5 18 -12z m62 2 c1 -2 5 -20 8 -41 5 -34 4 -38 -11 -32 -9 4 -25 10 -34 12
-33 10 -19 74 14 68 11 -3 22 -6 23 -7z m-340 -8 c-3 -5 -11 -10 -16 -10 -6 0
-7 5 -4 10 3 6 11 10 16 10 6 0 7 -4 4 -10z m229 -6 c9 -24 7 -27 -9 -10 -17
17 -19 26 -6 26 5 0 12 -7 15 -16z m-1128 -47 c30 -44 31 -90 3 -118 -26 -26
-39 -16 -14 11 23 25 24 76 2 98 -16 15 -16 14 -9 -13 17 -60 -11 -106 -64
-108 l-39 -2 0 52 c1 36 6 58 19 72 10 11 16 27 13 35 -5 12 1 14 29 12 28 -3
41 -11 60 -39z m1430 -6 c-12 -13 -24 -17 -39 -13 l-22 7 23 3 c12 2 22 8 22
13 0 5 7 9 17 9 15 0 15 -2 -1 -19z m-1106 -21 c0 -5 -2 -10 -4 -10 -3 0 -8 5
-11 10 -3 6 -1 10 4 10 6 0 11 -4 11 -10z m904 -5 l39 -6 -8 -82 c-4 -45 -7
-97 -7 -114 0 -18 -4 -33 -9 -33 -5 0 -9 5 -9 12 0 6 -3 8 -6 5 -8 -8 -64 24
-64 35 0 5 14 1 31 -7 43 -23 49 -11 8 15 l-34 21 40 -7 c36 -6 39 -6 27 9 -8
9 -29 21 -48 27 -19 6 -34 16 -34 22 0 6 7 7 18 3 26 -12 72 -18 72 -11 0 4
-19 16 -42 26 l-43 20 48 -6 c26 -4 47 -3 47 0 0 11 -89 48 -100 41 -8 -5 -9
10 -1 43 1 2 9 1 19 -1 9 -3 34 -8 56 -12z m-1134 -20 c6 -8 10 -26 8 -42 -2
-21 -8 -28 -25 -28 -12 0 -25 -4 -29 -8 -18 -18 -22 -4 -8 29 8 19 12 44 9 54
-5 15 -2 17 14 13 11 -3 25 -11 31 -18z m250 -9 c0 -2 -9 -6 -20 -9 -11 -3
-18 -1 -14 4 5 9 34 13 34 5z m1119 -30 c8 -10 9 -16 1 -21 -5 -3 -10 -2 -10
4 0 6 -15 15 -32 20 l-33 9 31 1 c17 1 37 -5 43 -13z m-534 -86 c-9 -17 -15
-32 -14 -36 2 -12 -9 -15 -17 -3 -5 8 -3 10 6 4 9 -5 11 -4 6 4 -10 16 -39 -7
-32 -25 3 -7 1 -16 -4 -19 -11 -7 -12 31 -1 58 4 10 10 18 14 18 21 -2 26 1
32 19 4 11 11 18 16 15 5 -4 2 -19 -6 -35z m-1075 0 c-11 -20 -22 -25 -33 -14
-11 11 5 34 24 34 17 0 18 -3 9 -20z m129 -21 c-13 -26 -23 -18 -14 10 3 12
11 19 16 16 5 -4 5 -14 -2 -26z m1083 -31 c-12 -12 -24 -20 -27 -17 -2 3 5 16
16 28 12 12 24 20 27 16 3 -3 -4 -15 -16 -27z m38 -18 c-11 -20 -30 -28 -30
-12 0 11 22 32 32 32 5 0 4 -9 -2 -20z m61 -23 c10 3 19 0 19 -6 0 -12 -21
-13 -60 -2 -24 7 -24 7 -5 18 16 9 21 9 23 -2 2 -7 11 -11 23 -8z m-1351 -38
c-11 -20 -30 -26 -30 -9 0 6 5 10 10 10 6 0 10 7 10 16 0 8 5 12 10 9 7 -4 7
-13 0 -26z m589 -8 c-8 -11 -19 -23 -26 -26 -9 -3 -8 4 3 20 9 14 13 25 10 25
-4 0 -4 5 0 11 4 7 10 7 16 1 6 -6 5 -17 -3 -31z m815 24 c-6 -16 -24 -21 -24
-7 0 11 11 22 21 22 5 0 6 -7 3 -15z m-728 -20 c3 -14 3 -32 0 -41 -5 -14 -9
-14 -22 -3 -10 8 -12 15 -5 17 16 5 13 22 -4 22 -18 0 -20 16 -2 23 22 10 27
7 33 -18z m759 15 c3 -5 -1 -10 -10 -10 -9 0 -13 5 -10 10 3 6 8 10 10 10 2 0
7 -4 10 -10z m348 -21 c-3 -11 -15 -25 -27 -29 -20 -8 -20 -9 -1 -9 16 -1 20
-8 20 -36 0 -19 -3 -35 -6 -35 -3 0 -5 -20 -4 -44 2 -32 -2 -47 -13 -51 -24
-9 -33 8 -39 70 l-5 58 26 -7 c15 -4 26 -2 26 4 0 5 -11 10 -24 10 -24 0 -24
2 -14 33 14 42 27 57 48 57 13 0 17 -5 13 -21z m-1303 -3 c0 -3 -4 -8 -10 -11
-5 -3 -10 -1 -10 4 0 6 5 11 10 11 6 0 10 -2 10 -4z m124 -20 c-3 -8 -1 -17 5
-21 13 -8 14 -25 2 -25 -12 0 -24 37 -16 50 9 15 15 12 9 -4z m772 -17 c6 -5
14 -6 17 -2 4 3 7 1 7 -5 0 -9 -59 -29 -63 -20 -1 1 -11 13 -21 26 l-19 22 34
-6 c19 -4 39 -11 45 -15z m285 7 c5 3 9 -10 8 -28 -1 -40 -16 -148 -18 -131
-1 8 -13 10 -36 6 -38 -6 -41 -1 -25 43 8 19 8 29 0 34 -7 5 0 18 19 38 17 17
31 36 32 44 0 10 2 10 6 0 2 -6 9 -10 14 -6z m-411 -6 c0 -5 -4 -10 -10 -10
-5 0 -10 5 -10 10 0 6 5 10 10 10 6 0 10 -4 10 -10z m300 0 c0 -5 -4 -10 -10
-10 -5 0 -10 5 -10 10 0 6 5 10 10 10 6 0 10 -4 10 -10z m-970 -32 c0 -5 -7
-8 -15 -5 -8 4 -17 2 -20 -3 -4 -6 2 -10 11 -10 14 0 15 -3 6 -12 -10 -10 -15
-10 -23 2 -9 13 -10 12 -5 -2 6 -21 -13 -36 -24 -18 -5 8 4 23 24 40 30 27 46
30 46 8z m707 2 c10 0 13 -6 9 -16 -5 -14 -4 -15 9 -4 12 10 15 10 15 -4 0 -9
-7 -16 -15 -16 -19 0 -56 40 -48 54 4 7 8 6 11 -2 2 -7 11 -12 19 -12z m246 5
c0 -6 -7 -11 -16 -13 -12 -3 -15 1 -11 13 7 17 25 17 27 0z m-614 -37 c-7 -13
-14 -18 -16 -11 -3 7 1 22 8 35 7 13 14 18 16 11 3 -7 -1 -22 -8 -35z m61 18
c0 -3 -4 -8 -10 -11 -5 -3 -10 -1 -10 4 0 6 5 11 10 11 6 0 10 -2 10 -4z m230
-23 c0 -13 3 -13 15 -3 12 10 16 9 21 -4 4 -11 -1 -22 -12 -31 -17 -12 -19
-11 -22 3 -2 9 -8 21 -13 27 -12 12 -11 38 1 30 6 -3 10 -13 10 -22z m-593 3
c-3 -8 2 -17 11 -21 14 -5 14 -7 2 -15 -24 -15 -29 -12 -26 18 4 32 4 32 12
32 3 0 4 -6 1 -14z m873 4 c0 -5 -2 -10 -4 -10 -3 0 -8 5 -11 10 -3 6 -1 10 4
10 6 0 11 -4 11 -10z m-340 -20 c-6 -11 -13 -20 -16 -20 -2 0 0 9 6 20 6 11
13 20 16 20 2 0 0 -9 -6 -20z m200 10 c0 -5 -4 -10 -10 -10 -5 0 -10 5 -10 10
0 6 5 10 10 10 6 0 10 -4 10 -10z m30 0 c0 -5 -5 -10 -11 -10 -5 0 -7 5 -4 10
3 6 8 10 11 10 2 0 4 -4 4 -10z m-411 -57 c1 -7 -5 -13 -12 -13 -14 0 -21 45
-10 63 7 11 19 -19 22 -50z m599 17 c-7 -11 -14 -17 -17 -15 -2 3 1 11 7 18 7
8 8 18 4 22 -4 5 -1 5 5 1 10 -5 10 -11 1 -26z m-1078 10 c-20 -13 -33 -13
-25 0 3 6 14 10 23 10 15 0 15 -2 2 -10z m784 -9 c3 -5 -1 -11 -9 -14 -9 -4
-12 -1 -8 9 6 16 10 17 17 5z m-694 -16 c0 -8 -5 -15 -11 -15 -8 0 -8 -4 0
-14 7 -8 22 -45 35 -84 21 -65 21 -69 4 -59 -10 7 -17 19 -16 27 3 22 -12 61
-22 55 -12 -7 -70 6 -70 16 0 5 12 14 26 19 14 6 22 15 18 21 -3 6 -9 7 -13 3
-3 -5 -15 -10 -26 -12 -18 -2 -17 0 5 18 14 11 30 24 35 29 15 15 35 13 35 -4z
m73 -11 c-3 -9 0 -14 8 -12 8 2 19 -20 31 -62 27 -95 30 -126 13 -140 -19 -16
-32 -5 -16 14 9 11 7 15 -10 19 -12 3 -18 10 -14 17 4 6 -3 34 -15 62 -12 27
-19 56 -16 64 3 8 2 13 -3 10 -18 -11 -22 28 -5 41 20 15 35 8 27 -13z m-469
-16 c-3 -10 -1 -25 4 -35 8 -13 3 -23 -19 -46 -16 -16 -27 -33 -24 -37 3 -5
-8 -16 -24 -25 -16 -8 -32 -11 -35 -6 -7 11 20 35 32 27 4 -3 16 8 26 25 9 16
13 29 9 29 -13 0 -11 44 1 52 7 5 7 8 -1 8 -7 0 -13 6 -13 13 0 6 11 12 25 12
19 0 23 -4 19 -17z m1026 12 c0 -5 -4 -10 -10 -10 -5 0 -10 5 -10 10 0 6 5 10
10 10 6 0 10 -4 10 -10z m120 6 c0 -3 -4 -8 -10 -11 -5 -3 -10 -1 -10 4 0 6 5
11 10 11 6 0 10 -2 10 -4z m-1095 -16 c8 -13 -5 -13 -25 0 -13 8 -13 10 2 10
9 0 20 -4 23 -10z m1115 -9 c0 -5 3 -17 6 -25 5 -12 2 -15 -10 -10 -17 7 -22
44 -6 44 6 0 10 -4 10 -9z m-1094 -45 c3 -12 4 -51 2 -86 -3 -64 -3 -65 -30
-63 -21 1 -28 -3 -28 -17 0 -26 15 -33 33 -15 36 35 36 3 1 -67 -19 -38 -28
-47 -35 -37 -7 12 -12 12 -29 1 -20 -12 -20 -11 -11 7 7 13 8 22 1 26 -5 3
-10 1 -10 -5 0 -6 -5 -8 -11 -5 -6 5 -2 13 11 22 12 8 19 21 17 27 -3 7 -1 19
5 27 8 11 9 10 4 -4 -4 -11 -2 -16 5 -11 6 3 8 15 6 26 -3 12 2 23 14 31 10 6
19 20 19 29 0 10 8 18 18 19 13 0 12 3 -5 11 -13 6 -23 15 -23 20 0 5 -4 6
-10 3 -13 -8 -13 8 0 21 5 5 10 23 12 40 2 25 6 30 20 26 10 -2 21 -14 24 -26z
m1606 12 c-7 -7 -12 -8 -12 -2 0 14 12 26 19 19 2 -3 -1 -11 -7 -17z m38 18
c0 -3 -4 -8 -10 -11 -5 -3 -10 -1 -10 4 0 6 5 11 10 11 6 0 10 -2 10 -4z
m-315 -16 c3 -5 1 -10 -4 -10 -6 0 -11 5 -11 10 0 6 2 10 4 10 3 0 8 -4 11
-10z m165 -6 c0 -8 -4 -12 -10 -9 -5 3 -10 10 -10 16 0 5 5 9 10 9 6 0 10 -7
10 -16z m-1640 -16 c0 -19 -2 -20 -10 -8 -13 19 -13 30 0 30 6 0 10 -10 10
-22z m1291 8 c-9 -11 -6 -13 20 -10 27 3 30 2 19 -11 -10 -12 -10 -21 -1 -41
6 -14 11 -35 10 -47 0 -18 -3 -17 -15 11 -15 35 -29 44 -19 12 7 -23 -3 -25
-39 -9 -30 14 -24 32 7 24 12 -2 17 -2 10 1 -7 3 -9 12 -6 20 3 8 0 14 -6 14
-6 0 -11 -4 -11 -10 0 -15 -46 -12 -59 3 -14 18 -4 27 31 27 18 0 28 5 28 15
0 9 9 15 21 15 17 0 19 -3 10 -14z m-834 -48 c-3 -8 -6 -5 -6 6 -1 11 2 17 5
13 3 -3 4 -12 1 -19z m-618 -35 c9 -7 11 -13 6 -13 -16 0 -35 22 -34 40 0 13
1 13 6 0 4 -8 13 -20 22 -27z m247 4 c11 4 12 0 6 -18 -5 -13 -15 -25 -22 -27
-8 -3 -10 0 -5 8 5 9 2 10 -14 5 -13 -4 -21 -2 -21 5 0 6 5 8 11 5 6 -4 13 3
16 16 4 13 8 18 10 12 3 -7 11 -9 19 -6z m724 -7 c-6 -11 -12 -20 -14 -20 -2
0 -2 9 1 20 3 11 9 20 15 20 5 0 4 -9 -2 -20z m-860 -10 c0 -20 -25 -38 -36
-27 -8 7 15 47 26 47 6 0 10 -9 10 -20z m270 6 c0 -2 -8 -10 -17 -17 -16 -13
-17 -12 -4 4 13 16 21 21 21 13z m260 -37 c0 -11 -4 -17 -10 -14 -5 3 -10 13
-10 21 0 8 5 14 10 14 6 0 10 -9 10 -21z m45 -9 c3 -5 1 -10 -4 -10 -6 0 -11
5 -11 10 0 6 2 10 4 10 3 0 8 -4 11 -10z m-145 -30 c0 -5 -2 -10 -4 -10 -3 0
-8 5 -11 10 -3 6 -1 10 4 10 6 0 11 -4 11 -10z m218 -16 c-7 -15 -14 -21 -16
-15 -2 7 2 18 8 26 18 22 21 18 8 -11z m6 -38 c-6 -15 -24 -23 -24 -11 0 8 24
34 28 30 1 -1 0 -10 -4 -19z m-63 -10 c5 3 9 0 9 -6 0 -15 -23 -7 -26 8 -1 7
0 8 3 2 2 -5 9 -8 14 -4z m824 -5 c-3 -6 -11 -11 -17 -11 -6 0 -6 6 2 15 14
17 26 13 15 -4z m48 -10 c-2 -11 2 -21 8 -21 5 0 7 -5 4 -10 -4 -6 -12 -8 -18
-4 -7 3 -3 -2 8 -12 20 -16 20 -16 -2 -11 -18 4 -23 1 -23 -13 0 -24 -20 -37
-30 -20 -10 15 -3 38 18 62 13 16 12 17 -17 8 -19 -5 -29 -5 -26 1 4 5 13 9
21 9 7 0 19 9 26 20 16 25 34 20 31 -9z m-804 -13 c-12 -22 -11 -23 8 -5 25
22 29 21 29 -2 0 -14 -6 -19 -25 -17 -29 4 -38 21 -21 42 18 21 24 10 9 -18z
m-609 -73 c28 -14 41 -35 22 -35 -14 0 -72 58 -72 72 0 8 5 6 11 -5 5 -9 23
-24 39 -32z m1330 23 c0 -21 -4 -23 -60 -23 -38 0 -56 3 -49 10 8 8 68 28 102
34 4 0 7 -9 7 -21z m-1150 2 c0 -5 -4 -10 -10 -10 -5 0 -10 5 -10 10 0 6 5 10
10 10 6 0 10 -4 10 -10z m468 -6 c12 -2 22 -8 22 -13 0 -5 -9 -7 -20 -4 -24 6
-51 -14 -48 -35 2 -8 -5 -16 -16 -18 -10 -1 -28 -12 -40 -23 -12 -12 -30 -21
-40 -21 -26 0 -13 13 38 40 36 18 44 26 35 36 -26 32 6 50 69 38z m-581 -18
c-8 -21 13 -38 30 -24 16 13 73 21 73 9 0 -19 -39 -38 -81 -40 -45 -1 -47 0
-46 26 1 16 6 31 12 35 15 11 18 10 12 -6z m474 -9 c-10 -9 -11 -8 -5 6 3 10
9 15 12 12 3 -3 0 -11 -7 -18z m529 -8 c-7 -11 -14 -18 -17 -15 -8 8 5 36 17
36 7 0 7 -6 0 -21z m192 -14 c5 -6 8 -6 8 3 0 6 10 12 23 12 21 -1 21 -2 -8
-27 -24 -21 -31 -23 -33 -11 -4 20 -47 29 -64 14 -8 -8 -8 -6 1 6 14 19 61 21
73 3z m-592 0 c0 -2 -10 -10 -22 -16 -21 -11 -22 -11 -9 4 13 16 31 23 31 12z
m-150 -9 c0 -2 -8 -10 -17 -17 -16 -13 -17 -12 -4 4 13 16 21 21 21 13z m185
-6 c3 -5 2 -10 -4 -10 -5 0 -13 5 -16 10 -3 6 -2 10 4 10 5 0 13 -4 16 -10z
m655 2 c0 -12 -49 -37 -56 -29 -11 10 17 37 37 37 11 0 19 -4 19 -8z m-302
-24 c14 -14 16 -58 3 -58 -5 0 -16 -3 -25 -6 -9 -3 -16 -1 -16 5 0 6 6 11 14
11 20 0 25 33 6 47 -8 7 -10 13 -4 13 5 0 15 -5 22 -12z m-380 -10 c-10 -6 -9
-8 3 -8 9 0 19 -10 23 -22 7 -31 -24 -93 -46 -92 -10 1 -15 -2 -12 -7 3 -5 -5
-9 -18 -9 -25 0 -64 23 -85 50 -11 13 -12 12 -13 -8 0 -35 56 -58 117 -46 27
5 48 14 48 21 0 6 3 15 8 19 4 4 7 1 7 -7 1 -35 40 39 40 76 0 49 17 36 24
-19 6 -47 -12 -85 -56 -120 -18 -14 -28 -26 -21 -26 6 0 15 5 18 10 3 6 11 10
17 10 6 0 3 -10 -7 -22 -10 -13 0 -5 23 17 22 22 42 47 42 55 1 10 3 11 7 2 2
-6 9 -10 14 -7 5 4 6 -2 2 -12 -6 -15 -4 -16 9 -5 17 14 34 0 23 -18 -3 -6 1
-7 10 -4 17 7 50 -29 50 -56 1 -8 7 -14 14 -12 9 2 11 -3 7 -13 -3 -9 0 -18 9
-21 10 -4 1 -18 -32 -49 -28 -27 -44 -49 -40 -58 9 -23 -14 -44 -57 -56 -38
-10 -41 -9 -80 29 -22 22 -43 40 -47 40 -4 0 -14 6 -21 13 -7 6 -31 25 -53 40
-22 15 -49 40 -60 54 -11 15 -36 43 -56 63 -34 34 -35 38 -18 48 15 9 19 8 24
-8 15 -47 185 -99 185 -56 0 12 -6 12 -29 3 -24 -9 -37 -7 -70 7 -54 25 -73
48 -82 99 -6 38 -7 39 -8 10 l-1 -33 -57 0 c-56 0 -56 0 -37 21 16 17 16 22 4
29 -11 7 -12 10 -2 10 7 0 20 -7 29 -15 8 -9 18 -13 21 -10 4 3 0 10 -8 15
-13 8 -12 10 0 14 8 3 27 7 42 9 15 1 40 15 55 29 16 14 35 28 43 30 25 8 111
5 98 -4z m719 -7 c2 -20 -22 -36 -32 -21 -8 12 5 40 19 40 6 0 12 -9 13 -19z
m-952 -11 c3 -5 1 -10 -4 -10 -6 0 -11 5 -11 10 0 6 2 10 4 10 3 0 8 -4 11
-10z m439 -109 c3 -4 -6 -6 -19 -3 -14 2 -25 11 -25 19 0 10 4 11 19 3 11 -5
22 -14 25 -19z m46 -52 c0 -28 -15 -23 -18 7 -1 14 2 23 8 19 6 -3 10 -15 10
-26z m-542 12 c4 0 7 -14 8 -30 1 -23 -3 -28 -15 -23 -20 7 -71 48 -66 53 3 4
53 4 73 0z m-153 -31 c-3 -5 -11 -10 -16 -10 -6 0 -7 5 -4 10 3 6 11 10 16 10
6 0 7 -4 4 -10z m-115 -10 c0 -5 -7 -10 -15 -10 -8 0 -15 5 -15 10 0 6 7 10
15 10 8 0 15 -4 15 -10z m45 -10 c3 -5 2 -10 -4 -10 -5 0 -13 5 -16 10 -3 6
-2 10 4 10 5 0 13 -4 16 -10z m75 -15 c-10 -12 -9 -15 4 -15 10 0 14 -4 11
-10 -3 -5 3 -10 15 -10 28 0 48 -44 32 -71 -10 -16 -9 -19 3 -19 8 0 15 5 15
11 0 5 5 7 11 4 7 -5 4 -14 -8 -27 -18 -21 -18 -21 9 -14 15 3 30 2 33 -4 4
-6 1 -9 -6 -8 -6 2 -14 -3 -17 -11 -3 -11 2 -12 23 -7 16 4 33 2 41 -5 17 -14
18 -30 2 -26 -6 1 -14 -6 -16 -16 -3 -16 0 -18 20 -12 22 7 23 7 3 -9 -13 -10
-15 -15 -6 -16 11 0 11 -3 1 -15 -15 -18 -1 -19 21 -2 9 7 14 17 12 23 -3 8
25 11 45 5 1 -1 -16 -17 -37 -36 -31 -28 -45 -34 -65 -29 -31 8 -57 35 -39 41
10 4 9 9 -3 20 -8 9 -13 22 -9 30 4 11 1 13 -11 9 -15 -6 -15 -4 -3 11 12 15
12 16 -5 10 -14 -6 -17 -4 -12 9 4 12 2 15 -9 11 -21 -9 -48 32 -33 50 8 10 7
12 -4 8 -19 -7 -38 33 -28 60 9 25 4 36 -15 29 -12 -5 -12 -1 -2 20 7 14 18
26 26 26 11 0 11 -3 1 -15z m905 7 c-2 -2 -7 -4 -12 -4 -16 0 -43 -19 -43 -30
0 -7 5 -6 15 2 29 24 37 4 10 -28 -29 -35 -69 -44 -63 -14 2 9 10 16 17 14 8
-2 10 4 6 17 -7 22 26 50 56 48 10 -1 16 -3 14 -5z m-690 -156 c8 3 22 1 32
-5 15 -9 12 -10 -19 -11 -30 0 -38 4 -37 18 0 9 3 12 5 5 3 -7 11 -10 19 -7z
m136 -13 c19 -9 39 -22 44 -29 6 -7 19 -14 30 -16 13 -2 16 -6 9 -11 -7 -4
-23 2 -37 13 -14 11 -35 20 -47 20 -20 0 -50 21 -50 34 0 10 16 7 51 -11z
m-41 -34 c0 -6 -4 -7 -10 -4 -5 3 -10 11 -10 16 0 6 5 7 10 4 6 -3 10 -11 10
-16z m125 11 c3 -5 1 -10 -4 -10 -6 0 -11 5 -11 10 0 6 2 10 4 10 3 0 8 -4 11
-10z m73 -60 c8 0 12 -3 9 -6 -12 -12 -68 18 -63 33 4 8 6 20 6 26 0 7 8 -3
16 -20 9 -18 23 -33 32 -33z m379 30 c8 -11 9 -21 3 -25 -8 -5 -30 24 -30 39
0 13 16 5 27 -14z m-98 -16 c-15 -14 -38 -27 -53 -27 -31 -2 -31 -2 -6 -35
l20 -25 -22 -24 c-28 -30 -33 -29 -68 6 -33 32 -57 44 -65 32 -3 -5 18 -24 46
-41 27 -18 62 -48 77 -68 l26 -34 -29 -24 c-40 -32 -51 -30 -47 8 1 3 -5 9
-13 12 -11 4 -12 0 -4 -21 5 -14 7 -28 4 -31 -7 -7 -39 27 -48 51 -3 9 -13 17
-22 17 -8 0 -14 3 -14 8 3 20 -2 42 -11 42 -5 0 -7 -7 -3 -16 5 -14 3 -15 -15
-5 -20 11 -27 30 -24 71 0 8 -4 23 -10 33 -9 18 -7 19 17 15 18 -4 28 -1 32 9
4 10 8 11 13 4 4 -8 30 -3 80 14 40 14 76 23 78 20 3 -3 14 3 25 12 11 10 17
12 13 6 -10 -18 2 -16 20 2 9 8 18 15 22 15 4 0 -5 -12 -19 -26z m75 -10 c10
-25 -1 -29 -14 -5 -6 12 -7 21 -1 21 5 0 12 -7 15 -16z m-24 -9 c10 -12 10
-19 2 -27 -14 -14 -17 -11 -26 20 -8 25 5 29 24 7z m-527 -38 c-4 -6 0 -8 11
-4 14 6 15 3 6 -13 -12 -23 -21 -25 -39 -7 -11 10 -12 8 -3 -9 12 -23 0 -50
-17 -40 -6 4 -11 0 -11 -8 0 -9 -7 -16 -15 -16 -8 0 -15 -5 -15 -10 0 -6 -11
-3 -25 7 l-24 18 21 18 c12 10 28 15 37 12 8 -3 12 -3 8 1 -9 10 32 54 51 54
12 0 12 3 1 18 -13 15 -12 16 3 3 10 -7 15 -18 11 -24z m494 18 c8 -22 -6 -33
-17 -15 -13 20 -12 30 0 30 6 0 13 -7 17 -15z m-27 -31 c0 -20 -23 -17 -37 5
-10 15 -10 21 0 24 15 6 37 -11 37 -29z m-308 15 c17 -9 18 -13 7 -20 -8 -4
-14 -23 -14 -41 0 -28 -4 -33 -26 -36 -16 -2 -32 5 -44 20 -11 13 -13 17 -5
11 15 -14 70 -18 70 -5 0 4 -5 14 -10 22 -9 13 -11 13 -20 0 -8 -12 -12 -12
-18 -2 -5 8 -16 10 -28 6 -18 -7 -18 -7 1 16 11 13 14 20 8 16 -16 -9 -36 2
-28 15 8 13 82 11 107 -2z m41 -99 c3 -10 -1 -24 -9 -31 -11 -9 -14 -8 -14 1
0 9 -6 8 -19 -4 -15 -14 -19 -14 -24 -3 -3 9 4 19 19 26 13 6 24 15 24 21 0
18 17 11 23 -10z m-322 0 c27 -15 26 -50 -2 -43 -19 5 -20 4 -9 -17 10 -19 10
-25 -2 -34 -8 -6 -18 -21 -22 -34 -8 -25 -26 -30 -26 -7 0 8 -7 15 -16 15 -14
0 -15 2 -3 17 8 9 9 14 2 10 -7 -5 -16 6 -23 29 -14 41 -13 44 28 47 17 1 30
4 30 7 -2 23 12 26 43 10z m150 -7 c-5 -10 -12 -26 -15 -35 -3 -10 -11 -18
-17 -18 -8 0 -7 5 2 16 12 15 11 16 -11 10 -24 -7 -24 -7 5 18 35 30 49 33 36
9z m81 -45 c-5 -32 -13 -26 -26 19 -6 17 -3 20 12 16 14 -3 17 -11 14 -35z
m-52 13 c0 -18 -27 -37 -38 -26 -3 3 0 5 6 5 7 0 12 9 12 20 0 11 5 20 10 20
6 0 10 -9 10 -19z m-15 -112 c11 -17 2 -18 -19 -3 -17 12 -17 14 -4 14 9 0 20
-5 23 -11z m-25 -24 c20 -24 6 -28 -15 -5 -10 11 -13 20 -8 20 6 0 16 -7 23
-15z m-16 -31 c9 -24 2 -26 -12 -4 -7 11 -8 20 -3 20 5 0 12 -7 15 -16z m443
-40 c-3 -3 -12 -4 -19 -1 -8 3 -5 6 6 6 11 1 17 -2 13 -5z m153 -32 c-21 -10
-36 -26 -38 -38 -2 -12 -13 -27 -25 -33 -19 -10 -17 -11 17 -7 l38 5 -28 -24
c-23 -20 -25 -25 -11 -25 18 0 24 -16 7 -22 -5 -1 -11 -13 -13 -26 -2 -12 -10
-28 -19 -35 -9 -6 -18 -19 -21 -27 -3 -10 -7 -6 -12 13 -4 15 -11 27 -16 27
-12 0 -11 -13 1 -46 12 -30 -4 -64 -44 -96 -14 -12 -17 -20 -10 -25 12 -8 16
-62 8 -100 -4 -20 -10 -23 -57 -23 -68 0 -83 14 -57 51 11 15 17 34 14 43 -3
9 -1 16 6 16 6 0 9 4 6 9 -6 9 14 68 35 104 5 10 7 22 4 26 -8 13 23 34 40 27
19 -7 19 8 0 24 -8 7 -15 16 -15 21 0 5 7 6 15 3 8 -4 15 -1 15 5 0 6 -4 11
-10 11 -5 0 -10 5 -10 11 0 6 6 9 14 6 9 -4 12 0 9 13 -3 10 0 21 6 24 7 5 8
1 5 -9 -5 -11 -2 -14 9 -9 13 5 14 10 5 30 -6 13 -9 26 -7 28 13 13 137 66
154 66 14 0 10 -5 -15 -18z m-589 -65 c-10 -9 -11 -8 -5 6 3 10 9 15 12 12 3
-3 0 -11 -7 -18z m366 -447 c2 0 4 -8 4 -17 1 -17 2 -17 6 0 2 9 14 17 25 17
16 0 19 -5 16 -25 -3 -14 -2 -25 3 -25 4 0 10 10 12 23 3 16 5 14 6 -10 1 -26
-2 -30 -19 -26 -12 3 -20 14 -21 27 -1 18 -2 18 -6 3 -3 -11 -11 -16 -19 -13
-7 3 -16 1 -19 -4 -8 -13 -45 -13 -45 0 0 6 5 10 10 10 6 0 10 7 10 15 0 8 -9
15 -20 15 -19 0 -26 11 -14 22 3 4 20 2 37 -3 18 -5 33 -9 34 -9z m-116 -43
c-10 -9 -11 -8 -5 6 3 10 9 15 12 12 3 -3 0 -11 -7 -18z m69 19 c0 -2 -9 -6
-20 -9 -11 -3 -18 -1 -14 4 5 9 34 13 34 5z m-10 -50 c0 -11 -19 -15 -25 -6
-3 5 1 10 9 10 9 0 16 -2 16 -4z m37 -73 c-8 -7 -37 9 -31 19 3 5 12 4 20 -3
8 -6 13 -14 11 -16z m63 13 c0 -11 -19 -15 -25 -6 -3 5 1 10 9 10 9 0 16 -2
16 -4z m7 -55 c1 -11 -8 -27 -20 -37 -12 -10 -16 -12 -9 -4 6 8 12 24 12 37 0
28 15 31 17 4z m-53 -6 c-7 -16 -24 -21 -24 -6 0 8 7 13 27 20 1 1 0 -6 -3
-14z m-14 -25 c5 0 8 -13 8 -30 -1 -26 -5 -30 -32 -31 -17 -1 -37 -1 -45 0 -7
2 -10 -2 -6 -8 11 -18 -28 -12 -55 9 -14 11 -21 20 -16 20 6 0 1 7 -10 15 -17
13 -17 14 -2 15 12 0 16 6 12 18 -3 10 0 8 8 -5 9 -16 17 -20 28 -13 8 5 18 6
22 4 14 -9 48 7 48 22 0 13 2 13 16 0 8 -9 19 -16 24 -16z m-60 10 c0 -5 -4
-10 -10 -10 -5 0 -10 5 -10 10 0 6 5 10 10 10 6 0 10 -4 10 -10z m-370 -370
c0 -5 -2 -10 -4 -10 -3 0 -8 5 -11 10 -3 6 -1 10 4 10 6 0 11 -4 11 -10z m440
-318 c0 -11 -7 -25 -15 -32 -11 -9 -14 -30 -13 -74 1 -34 -2 -69 -7 -76 -5 -8
-10 -21 -11 -30 -13 -92 -16 -124 -10 -119 4 4 9 24 12 45 6 46 17 61 14 19
-1 -16 -1 -34 0 -40 1 -5 2 -26 2 -45 -1 -19 2 -27 5 -17 3 13 8 15 18 7 10
-8 10 -17 1 -43 -6 -17 -15 -38 -19 -44 -6 -9 -1 -13 17 -13 18 0 24 4 20 14
-3 8 -1 17 5 21 7 4 11 -4 11 -19 0 -20 -5 -26 -22 -27 -13 0 -36 -2 -53 -3
-50 -6 -118 -9 -149 -7 -25 1 -27 3 -15 18 12 15 12 16 -3 11 -23 -9 -33 22
-12 41 15 15 15 14 5 -7 -11 -22 -11 -22 8 -10 12 7 21 18 21 25 0 7 5 13 10
13 6 0 10 5 10 10 0 14 -28 12 -33 -2 -2 -7 -7 -10 -11 -6 -4 3 -3 15 2 25 6
11 8 39 6 64 -4 31 -3 40 5 29 5 -8 8 -17 5 -21 -2 -4 3 -20 11 -35 17 -34 18
-26 4 36 -5 24 -15 48 -21 51 -6 4 -8 14 -5 24 4 9 12 13 18 9 8 -4 9 3 4 25
-3 17 -3 36 1 43 5 7 7 26 5 41 -1 15 3 35 11 44 7 9 8 14 3 11 -6 -4 -17 -3
-25 2 -11 7 -11 11 -1 24 8 9 10 17 5 17 -18 3 63 14 124 17 56 3 62 1 62 -16z
m-250 -342 c0 -5 -2 -10 -4 -10 -3 0 -8 5 -11 10 -3 6 -1 10 4 10 6 0 11 -4
11 -10z m330 -90 c0 -5 -2 -10 -4 -10 -3 0 -8 5 -11 10 -3 6 -1 10 4 10 6 0
11 -4 11 -10z m-210 -150 c0 -5 -4 -10 -10 -10 -5 0 -10 5 -10 10 0 6 5 10 10
10 6 0 10 -4 10 -10z m320 -34 c0 -3 -4 -8 -10 -11 -5 -3 -10 -1 -10 4 0 6 5
11 10 11 6 0 10 -2 10 -4z m46 -5 c-4 -5 0 -12 6 -14 7 -3 8 -6 2 -6 -5 -1
-19 6 -30 14 -18 14 -18 14 4 15 13 0 21 -4 18 -9z m227 -186 c8 -19 -13 -31
-24 -14 -13 20 -11 29 5 29 8 0 16 -7 19 -15z m45 -90 c-12 -26 -23 -31 -33
-16 -3 5 5 17 17 25 29 21 30 20 16 -9z m-1181 -31 c-3 -3 -12 -4 -19 -1 -8 3
-5 6 6 6 11 1 17 -2 13 -5z m1298 -45 c-4 -5 -18 -9 -33 -9 l-27 1 25 13 c25
15 45 12 35 -5z m-80 -49 c-3 -5 -23 -9 -43 -9 l-37 2 40 7 c22 4 41 8 43 9 2
0 0 -3 -3 -9z m52 4 c-3 -3 -12 -4 -19 -1 -8 3 -5 6 6 6 11 1 17 -2 13 -5z
m-372 -14 c-3 -5 -15 -10 -26 -10 -10 0 -19 5 -19 10 0 6 12 10 26 10 14 0 23
-4 19 -10z m88 3 c-13 -2 -33 -2 -45 0 -13 2 -3 4 22 4 25 0 35 -2 23 -4z m70
0 c-7 -2 -21 -2 -30 0 -10 3 -4 5 12 5 17 0 24 -2 18 -5z m-718 -104 c154 8
363 2 371 -10 3 -5 10 -7 15 -4 10 7 32 -12 42 -35 5 -11 6 -9 6 5 -2 43 2 55
17 55 14 0 14 -3 4 -15 -16 -19 1 -65 24 -65 9 0 17 -13 20 -32 20 -123 28
-153 41 -168 11 -12 12 -19 3 -28 -9 -9 -9 -18 0 -37 6 -13 9 -32 5 -40 -4
-13 0 -15 19 -10 21 6 27 2 32 -19 3 -14 11 -26 17 -26 8 0 7 -5 -1 -15 -7 -8
-10 -24 -7 -34 3 -11 -1 -29 -9 -40 -8 -10 -12 -25 -9 -33 8 -24 -19 -45 -70
-52 -27 -4 -59 -10 -70 -12 -93 -19 -152 -23 -355 -23 -170 0 -242 3 -271 13
-22 8 -42 10 -45 5 -3 -5 -14 -9 -26 -9 -14 0 -18 5 -14 15 3 8 1 15 -4 15 -6
0 -10 11 -10 25 0 19 -4 23 -17 18 -13 -5 -15 -3 -8 13 5 10 8 31 8 47 0 15 4
27 8 27 5 0 9 -10 9 -22 0 -24 13 -17 16 9 2 9 5 27 9 40 5 23 -8 32 -20 13
-3 -5 -10 -10 -16 -10 -5 0 -9 5 -9 10 0 6 7 10 16 10 11 0 14 6 9 20 -3 11
-2 20 3 20 10 0 10 -2 13 110 2 82 17 135 43 152 7 5 4 8 -6 8 -10 0 -18 5
-18 10 0 6 7 10 16 10 8 0 12 5 9 10 -4 6 0 23 8 40 11 21 12 30 3 33 -6 2 7
3 29 3 22 -1 54 2 70 5 17 4 37 5 45 2 8 -3 33 -5 55 -4z m-361 -183 c-3 -22
-15 -86 -26 -141 -11 -55 -24 -116 -28 -136 -3 -19 -10 -41 -14 -48 -4 -6 -9
-26 -11 -43 -5 -39 -9 -42 -38 -34 -23 5 -24 9 -17 48 5 23 5 48 2 56 -3 10
-1 13 6 8 12 -7 25 28 22 55 -4 28 0 39 16 39 9 0 14 6 11 13 -5 14 11 84 37
156 9 24 16 55 16 68 0 21 2 23 15 13 11 -9 13 -24 9 -54z m81 -424 c-8 -8
-25 10 -19 20 4 6 9 5 15 -3 4 -7 6 -15 4 -17z m-35 -32 c0 -5 -8 -10 -17 -10
-15 0 -16 2 -3 10 19 12 20 12 20 0z m527 -11 c213 -1 377 -5 363 -8 l-25 -7
25 -9 25 -8 -25 -9 c-14 -5 -86 -13 -160 -18 -74 -5 -148 -11 -165 -14 -16 -4
-132 -6 -257 -6 -202 -1 -229 1 -248 17 -11 10 -20 23 -20 30 0 7 -7 13 -15
13 -8 0 -15 4 -15 9 0 11 72 20 107 14 12 -2 197 -4 410 -4z m-507 -39 c0 -5
-2 -10 -4 -10 -3 0 -8 5 -11 10 -3 6 -1 10 4 10 6 0 11 -4 11 -10z m12 -32
c-9 -9 -15 -9 -24 0 -9 9 -7 12 12 12 19 0 21 -3 12 -12z m891 -35 c-15 -11
-12 -13 18 -14 27 0 30 -2 14 -8 -20 -8 -21 -21 -11 -112 l3 -25 -96 0 c-235
0 -454 -7 -411 -14 25 -4 125 -6 223 -6 109 1 178 -3 181 -9 2 -6 8 -6 15 1 7
6 23 9 37 6 42 -8 26 -20 -24 -18 -47 3 -48 2 -44 -25 4 -29 22 -38 82 -40 65
-1 80 -17 16 -17 -38 0 -61 -5 -67 -13 -5 -8 -9 -9 -9 -3 0 6 -10 9 -24 7 -14
-3 -23 -10 -20 -17 3 -7 -16 -11 -58 -12 -35 0 -90 -1 -123 -2 -33 -1 -78 -2
-100 -1 -22 0 -154 -1 -293 -3 -199 -2 -251 0 -247 10 5 15 -17 16 -32 1 -15
-15 -95 -7 -101 10 -3 8 0 11 7 7 6 -4 16 -4 23 0 8 5 6 10 -8 14 -14 6 -9 9
23 14 23 4 44 14 47 21 3 9 13 11 28 7 l23 -6 -25 -7 c-17 -5 -6 -7 35 -7 52
0 56 1 33 10 -36 12 -37 44 -3 52 25 6 35 26 14 26 -6 0 -24 11 -40 24 -24 21
-26 26 -14 36 9 8 15 30 15 59 0 26 4 51 10 57 5 5 190 9 465 9 367 0 452 -2
438 -12z m647 -383 c0 -5 -4 -10 -10 -10 -5 0 -10 5 -10 10 0 6 5 10 10 10 6
0 10 -4 10 -10z m-1090 -17 c0 -10 -4 -14 -8 -8 -4 6 -11 13 -16 18 -5 4 -2 7
7 7 10 0 17 -8 17 -17z m68 10 c-10 -3 -18 -11 -18 -19 0 -8 -4 -14 -10 -14
-5 0 -6 7 -3 17 4 11 3 14 -5 9 -7 -4 -12 -3 -12 2 0 5 15 9 33 9 17 0 24 -2
15 -4z m1009 -30 c-8 -7 -37 9 -31 19 3 5 12 4 20 -3 8 -6 13 -14 11 -16z m38
-3 c3 -5 1 -10 -4 -10 -6 0 -11 5 -11 10 0 6 2 10 4 10 3 0 8 -4 11 -10z"/>
<path d="M4840 8091 c-12 -24 -13 -41 -1 -41 5 0 11 14 13 30 5 35 3 37 -12
11z"/>
<path d="M4877 8053 c-4 -3 -7 -11 -7 -17 0 -6 5 -5 12 2 6 6 9 14 7 17 -3 3
-9 2 -12 -2z"/>
<path d="M6127 8079 c7 -7 15 -10 18 -7 3 3 -2 9 -12 12 -14 6 -15 5 -6 -5z"/>
<path d="M6488 7753 c7 -3 16 -2 19 1 4 3 -2 6 -13 5 -11 0 -14 -3 -6 -6z"/>
<path d="M4915 7570 c-3 -5 -1 -10 4 -10 6 0 11 5 11 10 0 6 -2 10 -4 10 -3 0
-8 -4 -11 -10z"/>
<path d="M4960 7520 c0 -5 7 -10 15 -10 8 0 15 5 15 10 0 6 -7 10 -15 10 -8 0
-15 -4 -15 -10z"/>
<path d="M5414 7119 c-3 -6 0 -17 8 -25 13 -13 16 -13 29 3 13 16 12 17 -3 5
-17 -14 -35 -1 -23 18 3 6 4 10 1 10 -3 0 -8 -5 -12 -11z"/>
<path d="M5485 7121 c-3 -5 -1 -12 5 -16 5 -3 10 1 10 9 0 18 -6 21 -15 7z"/>
<path d="M5682 6952 c-12 -20 -10 -23 10 -31 27 -10 38 -6 38 14 0 8 -6 12
-14 9 -9 -3 -16 2 -18 13 -3 16 -5 16 -16 -5z"/>
<path d="M5109 6859 c-23 -19 -23 -20 -2 -10 27 14 46 14 38 1 -3 -5 -1 -10 4
-10 13 0 13 3 5 24 -8 21 -17 20 -45 -5z"/>
<path d="M5140 6769 c0 -5 5 -7 10 -4 6 3 10 8 10 11 0 2 -4 4 -10 4 -5 0 -10
-5 -10 -11z"/>
<path d="M5225 6729 c-10 -15 3 -25 16 -12 7 7 7 13 1 17 -6 3 -14 1 -17 -5z"/>
<path d="M5730 6638 c0 -4 13 -8 28 -8 15 0 33 -5 40 -12 9 -9 12 -9 12 -1 0
7 -5 15 -12 19 -17 11 -68 12 -68 2z"/>
<path d="M5670 6566 c0 -9 5 -16 10 -16 6 0 10 4 10 9 0 6 -4 13 -10 16 -5 3
-10 -1 -10 -9z"/>
<path d="M5700 6541 c0 -16 29 -33 47 -28 16 4 15 6 -4 12 -13 4 -23 11 -23
16 0 5 -4 9 -10 9 -5 0 -10 -4 -10 -9z"/>
<path d="M5765 6490 c3 -5 8 -10 11 -10 2 0 4 5 4 10 0 6 -5 10 -11 10 -5 0
-7 -4 -4 -10z"/>
<path d="M5250 6460 c0 -5 4 -10 9 -10 6 0 13 5 16 10 3 6 -1 10 -9 10 -9 0
-16 -4 -16 -10z"/>
<path d="M5931 6084 c0 -11 3 -14 6 -6 3 7 2 16 -1 19 -3 4 -6 -2 -5 -13z"/>
<path d="M5810 6028 c0 -4 6 -8 14 -8 8 0 17 4 20 8 2 4 -4 8 -15 8 -10 0 -19
-4 -19 -8z"/>
<path d="M5750 4850 c0 -5 5 -10 11 -10 5 0 7 5 4 10 -3 6 -8 10 -11 10 -2 0
-4 -4 -4 -10z"/>
<path d="M5680 4720 c0 -5 5 -10 11 -10 5 0 7 5 4 10 -3 6 -8 10 -11 10 -2 0
-4 -4 -4 -10z"/>
<path d="M5910 3570 c0 -5 5 -10 10 -10 6 0 10 5 10 10 0 6 -4 10 -10 10 -5 0
-10 -4 -10 -10z"/>
<path d="M5900 3320 c-9 -6 -10 -10 -3 -10 6 0 15 5 18 10 8 12 4 12 -15 0z"/>
<path d="M5517 9333 c-11 -11 -8 -20 7 -20 8 0 12 6 9 14 -6 15 -7 15 -16 6z"/>
<path d="M5515 9268 c3 -14 8 -34 11 -45 4 -14 1 -13 -15 6 -22 25 -27 21 -11
-9 23 -42 136 -82 165 -58 5 5 19 15 30 24 17 13 16 13 -12 -1 -66 -31 -124
-7 -155 65 -10 25 -16 33 -13 18z"/>
<path d="M5734 9218 l-19 -23 23 19 c21 18 27 26 19 26 -2 0 -12 -10 -23 -22z"/>
<path d="M5460 9145 c0 -18 50 -112 69 -129 19 -17 31 -10 14 8 -5 4 -9 12 -9
17 -1 5 -2 14 -3 19 0 6 -9 10 -18 10 -16 0 -16 2 -3 11 13 9 12 10 -2 5 -13
-4 -18 0 -18 12 -1 17 -30 64 -30 47z"/>
<path d="M5549 8923 c-1 -32 -3 -79 -5 -105 -2 -27 0 -48 5 -48 4 0 9 21 11
48 1 26 3 57 4 69 0 12 4 24 7 27 8 9 -1 55 -12 62 -5 3 -10 -21 -10 -53z"/>
<path d="M5791 8954 c0 -11 3 -14 6 -6 3 7 2 16 -1 19 -3 4 -6 -2 -5 -13z"/>
<path d="M5945 8851 c3 -11 1 -22 -5 -26 -6 -3 -8 -11 -4 -16 3 -5 10 -7 15
-4 13 8 11 65 -2 65 -6 0 -8 -8 -4 -19z"/>
<path d="M5388 8842 c-12 -15 -11 -16 4 -3 10 7 24 11 31 8 8 -3 19 -2 26 2 7
5 0 8 -18 9 -17 0 -35 -7 -43 -16z"/>
<path d="M5438 8805 c2 -14 8 -25 12 -25 4 0 5 11 2 25 -2 14 -8 25 -12 25 -4
0 -5 -11 -2 -25z"/>
<path d="M5500 8799 c12 -42 20 -49 20 -17 0 14 -7 31 -15 38 -12 10 -13 7 -5
-21z"/>
<path d="M5966 8805 c-9 -26 -7 -32 5 -12 6 10 9 21 6 23 -2 3 -7 -2 -11 -11z"/>
<path d="M5402 8791 c2 -7 7 -12 11 -12 12 1 9 15 -3 20 -7 2 -11 -2 -8 -8z"/>
<path d="M6036 8755 c-3 -8 -1 -15 4 -15 6 0 10 7 10 15 0 8 -2 15 -4 15 -2 0
-6 -7 -10 -15z"/>
<path d="M6101 8756 c-8 -10 -9 -16 -1 -21 5 -3 10 -5 11 -3 4 18 7 38 4 38
-1 0 -8 -6 -14 -14z"/>
<path d="M5400 8721 c0 -5 7 -11 14 -14 10 -4 13 -1 9 9 -6 15 -23 19 -23 5z"/>
<path d="M5293 8673 c9 -9 20 -13 24 -9 4 4 1 11 -7 16 -25 16 -35 11 -17 -7z"/>
<path d="M5200 8551 c0 -10 50 -45 56 -39 2 3 -10 14 -26 27 -17 12 -30 17
-30 12z"/>
<path d="M5200 8500 c14 -11 28 -20 32 -20 4 0 28 -16 54 -35 47 -36 77 -44
90 -23 10 15 -22 36 -65 44 -20 3 -53 17 -73 30 -45 29 -73 32 -38 4z"/>
<path d="M5370 8389 c0 -5 5 -7 10 -4 6 3 10 8 10 11 0 2 -4 4 -10 4 -5 0 -10
-5 -10 -11z"/>
<path d="M5160 8381 c0 -10 36 -21 44 -14 3 3 3 10 0 14 -7 12 -44 12 -44 0z"/>
<path d="M6333 8363 c9 -2 23 -2 30 0 6 3 -1 5 -18 5 -16 0 -22 -2 -12 -5z"/>
<path d="M5147 8353 c-4 -3 -7 -11 -7 -17 0 -6 5 -5 12 2 6 6 9 14 7 17 -3 3
-9 2 -12 -2z"/>
<path d="M5185 8339 c-4 -6 -5 -13 -2 -16 7 -7 27 6 27 18 0 12 -17 12 -25 -2z"/>
<path d="M6375 8336 c-18 -13 -18 -14 8 -9 15 3 24 9 21 14 -7 12 -7 12 -29
-5z"/>
<path d="M6368 8303 c-21 -2 -38 -8 -38 -13 0 -14 68 -9 81 6 6 8 8 13 3 12
-5 -1 -26 -3 -46 -5z"/>
<path d="M5535 8260 c3 -5 11 -10 16 -10 6 0 7 5 4 10 -3 6 -11 10 -16 10 -6
0 -7 -4 -4 -10z"/>
<path d="M4882 8241 c-8 -5 -12 -15 -10 -24 2 -12 7 -10 21 9 18 24 13 31 -11
15z"/>
<path d="M5481 8219 c6 -12 20 -24 30 -26 17 -5 20 -14 19 -72 -1 -65 11 -146
24 -158 3 -4 4 17 1 45 -5 51 -5 52 22 52 42 0 57 14 49 45 -4 16 -2 33 5 41
7 8 9 17 5 21 -12 12 -31 -18 -31 -49 0 -35 -27 -60 -46 -41 -16 16 -17 109
-1 106 6 -2 12 4 12 13 0 8 -5 12 -10 9 -6 -4 -27 3 -46 14 -44 26 -47 26 -33
0z"/>
<path d="M6360 8170 c8 -5 24 -10 35 -10 17 0 17 2 5 10 -8 5 -24 10 -35 10
-17 0 -17 -2 -5 -10z"/>
<path d="M5470 8076 c0 -10 8 -16 22 -16 12 0 19 1 17 3 -2 1 -12 9 -21 16
-15 12 -18 11 -18 -3z"/>
<path d="M5592 7918 c-8 -8 -6 -16 10 -30 26 -22 24 -22 24 2 0 13 -5 19 -14
15 -10 -3 -12 0 -8 10 7 18 4 19 -12 3z"/>
<path d="M6919 7891 c-13 -11 -20 -20 -16 -21 4 0 3 -9 -2 -19 -8 -14 -7 -22
3 -30 9 -7 12 -23 9 -41 -2 -16 1 -38 7 -47 10 -15 11 -15 6 -1 -6 22 4 30 21
17 20 -17 16 -26 -14 -38 -26 -10 -26 -11 -3 -6 14 2 32 5 41 5 12 0 18 11 21
35 2 19 0 35 -4 35 -4 0 -8 -7 -8 -15 0 -8 -4 -15 -10 -15 -5 0 -3 18 6 40 18
46 18 48 -17 54 -13 2 -25 5 -26 5 -1 1 2 13 8 27 13 35 7 39 -22 15z"/>
<path d="M5558 7893 c20 -8 3 -23 -27 -23 -16 0 -34 -7 -41 -16 -12 -13 -10
-14 14 -3 21 10 32 10 46 2 10 -7 27 -9 39 -6 16 4 23 -1 31 -21 13 -36 -3
-78 -27 -70 -13 4 -15 3 -5 -4 11 -7 11 -10 -2 -15 -14 -6 -21 4 -17 26 0 4
-3 7 -9 7 -5 0 -8 14 -6 30 4 37 -12 39 -49 4 l-28 -26 39 -25 c22 -13 31 -22
22 -19 -10 3 -18 1 -18 -4 0 -16 -18 -12 -23 5 -3 11 -4 10 -3 -2 1 -15 10
-18 51 -16 41 2 54 8 72 30 36 44 30 84 -16 121 -22 18 -43 32 -48 31 -4 0 -2
-3 5 -6z m-17 -107 c-9 -11 -9 -15 1 -19 7 -3 8 -6 2 -6 -5 -1 -19 6 -30 14
-16 13 -16 14 -1 9 9 -3 17 -1 17 5 0 6 5 11 11 11 8 0 8 -4 0 -14z"/>
<path d="M5227 7873 c-4 -3 -7 -11 -7 -17 0 -6 5 -5 12 2 6 6 9 14 7 17 -3 3
-9 2 -12 -2z"/>
<path d="M6809 7863 c0 -5 -2 -19 -3 -33 -2 -14 -1 -31 1 -37 7 -18 23 -6 23
17 0 10 6 20 12 22 9 3 8 9 -4 21 -18 18 -28 21 -29 10z"/>
<path d="M7238 7864 c-3 -3 -38 -5 -77 -6 -39 0 -74 -4 -77 -9 -3 -5 4 -9 15
-9 12 0 21 -4 21 -10 0 -5 5 -10 10 -10 17 0 58 -43 69 -72 11 -29 34 -37 47
-16 4 6 -10 27 -35 51 -23 21 -40 41 -37 44 3 3 24 -15 48 -39 39 -40 47 -44
81 -40 33 4 37 7 37 33 0 40 -19 76 -44 83 -27 7 -51 8 -58 0z m22 -64 c0 -5
-2 -10 -4 -10 -3 0 -8 5 -11 10 -3 6 -1 10 4 10 6 0 11 -4 11 -10z"/>
<path d="M5578 7813 c7 -3 16 -2 19 1 4 3 -2 6 -13 5 -11 0 -14 -3 -6 -6z"/>
<path d="M4636 7772 c-14 -22 -19 -102 -7 -102 8 0 10 8 6 20 -3 11 -2 20 3
20 14 0 25 51 14 62 -6 6 -12 6 -16 0z"/>
<path d="M6610 7769 c0 -5 5 -7 10 -4 6 3 10 8 10 11 0 2 -4 4 -10 4 -5 0 -10
-5 -10 -11z"/>
<path d="M7090 7772 c-39 -10 -39 -10 -30 -43 7 -22 6 -37 -1 -46 -9 -10 -7
-13 6 -13 11 0 15 -5 11 -15 -3 -8 -1 -15 4 -15 6 0 10 -4 10 -10 0 -5 -8 -10
-17 -10 -15 0 -16 -2 -3 -10 27 -18 32 -11 26 35 -7 42 -6 46 21 57 15 7 30
13 32 15 9 6 -46 59 -59 55z"/>
<path d="M6828 7764 c-8 -8 20 -54 33 -54 5 0 9 9 9 20 0 11 -6 20 -14 20 -8
0 -16 5 -18 11 -2 5 -6 7 -10 3z"/>
<path d="M4660 7730 c0 -5 5 -10 10 -10 6 0 10 5 10 10 0 6 -4 10 -10 10 -5 0
-10 -4 -10 -10z"/>
<path d="M6792 7720 c14 -22 24 -19 15 5 -4 8 -11 15 -17 15 -6 0 -6 -7 2 -20z"/>
<path d="M7286 7713 c-12 -12 -6 -25 9 -19 8 3 15 1 15 -4 0 -6 -9 -10 -19
-10 -27 0 -49 -35 -43 -65 3 -19 8 -23 17 -15 6 5 14 7 17 4 9 -9 48 47 48 70
0 21 -33 50 -44 39z m5 -84 c-5 -13 -10 -19 -10 -12 -1 15 10 45 15 40 3 -2 0
-15 -5 -28z"/>
<path d="M5548 7683 c-10 -2 -18 -9 -18 -14 0 -14 16 -11 30 6 7 8 11 14 9 14
-2 -1 -12 -3 -21 -6z"/>
<path d="M5461 7664 c0 -11 3 -14 6 -6 3 7 2 16 -1 19 -3 4 -6 -2 -5 -13z"/>
<path d="M4770 7550 c0 -5 4 -10 9 -10 6 0 13 5 16 10 3 6 -1 10 -9 10 -9 0
-16 -4 -16 -10z"/>
<path d="M5910 7461 c0 -5 7 -14 15 -21 16 -14 18 -10 9 14 -6 17 -24 22 -24
7z"/>
<path d="M5697 7354 c-3 -11 -9 -30 -12 -43 -5 -17 -4 -21 5 -16 18 11 32 57
21 68 -5 5 -11 2 -14 -9z"/>
<path d="M5742 7339 c3 -8 1 -24 -3 -36 -5 -13 -6 -23 -3 -23 13 0 44 22 44
31 0 6 -4 7 -10 4 -5 -3 -10 1 -10 9 0 8 -5 18 -11 22 -7 4 -10 1 -7 -7z"/>
<path d="M5800 7325 c-7 -9 -11 -18 -8 -20 3 -3 11 1 18 10 7 9 11 18 8 20 -3
3 -11 -1 -18 -10z"/>
<path d="M4886 6914 c-4 -9 -4 -19 -2 -21 8 -8 26 8 26 23 0 19 -16 18 -24 -2z"/>
<path d="M4829 6855 c-20 -27 -25 -43 -23 -82 3 -82 2 -78 27 -57 12 10 16 12
10 4 -15 -17 -17 -44 -3 -35 6 3 10 -1 10 -9 0 -19 16 -21 24 -3 3 6 3 1 0
-12 -3 -13 -2 -26 3 -30 6 -3 31 -30 56 -58 25 -29 84 -83 129 -119 46 -37 99
-81 118 -99 28 -27 39 -31 58 -24 27 10 30 29 3 22 -14 -3 -29 10 -60 54 -22
32 -49 64 -60 70 -32 20 -51 68 -58 141 -5 58 -8 63 -15 40 -6 -18 -5 -48 3
-85 7 -32 13 -60 14 -63 0 -3 4 -11 8 -17 5 -7 4 -13 -1 -13 -13 0 -55 116
-55 151 0 16 -5 29 -10 29 -9 0 -5 -59 8 -120 3 -14 -6 0 -21 30 -14 30 -38
65 -52 77 l-27 22 35 14 c19 8 42 17 50 20 25 9 -21 8 -62 -2 -35 -8 -38 -7
-38 14 0 28 28 37 84 28 28 -4 37 -3 32 5 -8 14 -56 15 -108 3 -21 -5 -36 -6
-34 -2 2 3 0 16 -5 28 -6 16 -14 21 -26 17 -14 -5 -15 -4 -4 4 8 6 11 17 8 27
-4 9 0 27 9 41 24 36 3 28 -27 -11z"/>
<path d="M6120 6480 c0 -5 5 -10 11 -10 5 0 7 5 4 10 -3 6 -8 10 -11 10 -2 0
-4 -4 -4 -10z"/>
<path d="M5910 6320 c0 -5 4 -10 9 -10 6 0 13 5 16 10 3 6 -1 10 -9 10 -9 0
-16 -4 -16 -10z"/>
<path d="M5226 6251 c-10 -10 -14 -21 -9 -24 5 -3 13 6 20 19 13 29 11 30 -11
5z"/>
<path d="M5364 6098 l-19 -23 23 19 c21 18 27 26 19 26 -2 0 -12 -10 -23 -22z"/>
<path d="M5642 5586 c1 -10 8 -17 13 -17 15 1 12 24 -3 29 -9 3 -13 -2 -10
-12z"/>
<path d="M121 5499 c-6 -18 -11 -56 -11 -85 0 -29 -4 -56 -10 -59 -5 -3 -10
-16 -9 -28 0 -14 2 -17 6 -7 2 8 7 22 11 30 7 19 31 174 27 178 -1 2 -8 -11
-14 -29z"/>
<path d="M410 5487 c0 -8 -12 -32 -26 -53 -16 -22 -34 -73 -44 -119 -25 -113
-49 -197 -60 -210 -6 -7 -7 -15 -3 -18 3 -4 1 -12 -5 -20 -6 -7 -16 -31 -21
-52 -35 -133 -45 -165 -52 -165 -5 0 -11 -23 -15 -51 -4 -28 -12 -56 -18 -62
-7 -7 -18 -39 -25 -72 -7 -33 -20 -73 -28 -89 -8 -16 -16 -41 -18 -55 -1 -14
-8 -27 -14 -29 -6 -2 -9 -7 -6 -12 6 -10 -25 -102 -54 -158 -21 -40 -21 -50
-21 -582 0 -395 3 -540 11 -540 11 0 11 -17 -8 -217 -3 -35 -3 -63 0 -63 8 0
85 28 120 44 226 101 452 223 687 370 80 50 150 94 155 98 6 4 114 76 240 160
127 84 232 155 235 159 3 3 61 43 130 89 69 46 127 86 130 90 3 3 35 27 72 53
36 26 73 54 82 62 8 8 17 15 21 15 4 0 25 13 48 28 23 16 50 31 59 35 30 11
159 102 243 171 119 99 259 211 375 301 144 112 242 196 236 203 -3 3 -14 -1
-23 -9 -10 -8 -33 -22 -51 -32 -18 -10 -44 -29 -59 -43 -14 -13 -38 -25 -52
-26 -45 -3 -55 -5 -86 -17 -24 -10 -27 -14 -15 -22 12 -8 10 -9 -6 -4 -13 3
-28 0 -37 -10 -9 -8 -20 -15 -26 -15 -6 0 -11 -4 -11 -10 0 -5 -9 -10 -19 -10
-11 0 -23 -9 -26 -20 -3 -11 -12 -20 -18 -20 -7 0 -26 -12 -42 -27 -16 -16
-34 -28 -40 -29 -5 0 -22 -6 -37 -12 -30 -12 -40 -36 -10 -25 15 6 15 5 3 -10
-7 -9 -20 -17 -27 -17 -8 0 -14 -8 -14 -19 0 -23 -69 -38 -83 -18 -5 7 -7 -1
-4 -21 4 -36 -16 -40 -21 -4 -4 23 1 25 -64 -30 -12 -10 -26 -18 -33 -18 -7 0
-30 -12 -51 -28 -21 -15 -52 -34 -69 -42 -67 -32 -164 -96 -175 -116 -13 -24
-75 -55 -87 -43 -4 4 -19 1 -33 -7 -24 -14 -24 -15 -2 -11 12 3 22 3 22 1 0
-10 -36 -44 -47 -44 -8 0 -13 -12 -13 -28 0 -21 -7 -32 -27 -42 -40 -20 -63
-41 -57 -51 3 -5 -4 -9 -14 -9 -11 0 -25 -7 -32 -15 -7 -8 -20 -15 -30 -15 -9
0 -25 -9 -35 -20 -21 -24 -32 -25 -51 -6 -18 19 -18 26 3 42 10 7 15 15 12 19
-4 3 -63 -32 -132 -77 -70 -46 -183 -119 -252 -163 -68 -44 -125 -83 -125 -87
0 -5 -4 -8 -9 -8 -10 0 -102 -58 -111 -70 -3 -4 -30 -24 -61 -46 -87 -60 -241
-174 -374 -275 -127 -96 -157 -113 -185 -104 -16 5 -14 11 16 56 28 42 33 57
28 87 -5 38 -4 42 99 277 127 292 147 348 208 588 66 257 95 370 104 397 5 18
4 22 -4 15 -6 -6 -17 -31 -25 -55 -13 -43 -44 -122 -71 -185 -8 -16 -31 -74
-51 -127 -21 -53 -42 -94 -46 -92 -4 3 -5 -2 -2 -10 3 -8 -18 -72 -48 -143
-29 -70 -51 -132 -50 -137 2 -5 -2 -12 -8 -16 -6 -4 -13 -13 -14 -21 -6 -31
-26 -69 -36 -69 -17 0 -13 20 28 130 3 8 6 17 6 20 2 6 52 169 66 216 6 17 10
42 10 57 0 15 3 27 8 27 4 0 8 33 10 73 4 99 20 208 43 294 11 40 26 101 34
135 44 193 55 238 65 262 5 14 8 26 5 26 -7 0 -35 -63 -35 -80 0 -9 -4 -20 -8
-26 -5 -5 -15 -29 -23 -54 -7 -25 -23 -65 -35 -90 -12 -25 -27 -63 -33 -85 -7
-22 -23 -62 -36 -90 -13 -27 -29 -63 -35 -80 -7 -16 -19 -42 -26 -57 -8 -14
-14 -32 -14 -40 0 -8 -13 -27 -30 -43 -16 -16 -30 -37 -30 -46 0 -22 -16 -33
-23 -16 -2 7 -1 46 3 87 4 41 3 80 -1 86 -5 6 -7 13 -5 15 3 2 9 47 16 99 12
99 24 181 33 215 3 11 19 79 36 150 38 160 72 276 99 335 28 60 48 122 62 195
7 33 18 75 25 92 8 20 10 35 4 38 -5 4 -9 0 -9 -8z m1706 -1154 c-10 -10 -19
5 -10 18 6 11 8 11 12 0 2 -7 1 -15 -2 -18z m-56 -17 c0 -3 -4 -8 -10 -11 -5
-3 -10 -1 -10 4 0 6 5 11 10 11 6 0 10 -2 10 -4z m-917 -588 c-3 -16 -9 -28
-14 -28 -12 0 -11 4 3 35 14 31 18 29 11 -7z"/>
<path d="M5465 5440 c-3 -5 1 -10 9 -10 8 0 18 5 21 10 3 6 -1 10 -9 10 -8 0
-18 -4 -21 -10z"/>
<path d="M2352 5269 c-56 -55 -102 -103 -102 -107 0 -3 15 8 33 25 17 18 65
64 106 102 41 39 72 73 70 75 -3 3 -51 -40 -107 -95z"/>
<path d="M623 5325 c-6 -6 -18 -41 -27 -76 -9 -35 -23 -76 -31 -91 -7 -15 -10
-28 -5 -28 5 0 12 10 16 23 4 12 11 25 16 28 8 5 49 151 45 155 -1 1 -7 -4
-14 -11z"/>
<path d="M81 5284 c0 -11 3 -14 6 -6 3 7 2 16 -1 19 -3 4 -6 -2 -5 -13z"/>
<path d="M812 5232 c-31 -64 -55 -155 -44 -167 3 -3 0 -5 -6 -5 -7 0 -12 -8
-12 -18 0 -10 -11 -42 -25 -70 -14 -29 -25 -58 -25 -65 0 -7 -5 -18 -12 -25
-6 -6 -9 -14 -6 -18 19 -19 127 214 138 296 3 30 16 74 27 98 13 26 17 42 10
42 -7 -1 -27 -31 -45 -68z"/>
<path d="M2158 5084 c-71 -68 -94 -95 -68 -79 6 3 7 -1 4 -9 -3 -9 -11 -14
-17 -13 -6 1 -13 -8 -15 -21 -2 -15 -9 -22 -17 -18 -18 7 -29 -10 -13 -18 7
-3 1 -4 -15 -2 -19 2 -34 -4 -50 -20 -12 -13 -28 -24 -34 -24 -7 0 -13 -4 -13
-10 0 -5 -12 -13 -27 -16 -15 -4 -58 -35 -97 -68 -39 -34 -87 -72 -106 -86
-19 -13 -51 -38 -70 -55 -20 -17 -73 -53 -119 -80 -120 -72 -203 -144 -495
-426 -72 -70 -153 -146 -180 -169 -55 -46 -132 -88 -143 -77 -6 6 310 652 327
667 3 3 14 23 26 45 11 22 26 50 32 63 7 12 17 31 22 42 21 42 69 127 109 195
22 38 41 75 41 82 0 16 -16 17 -26 2 -4 -8 -9 -7 -15 2 -6 10 -9 8 -9 -9 0
-29 -18 -63 -42 -80 -10 -7 -18 -25 -18 -40 0 -15 -5 -34 -11 -42 -8 -12 -9
-9 -4 10 6 23 5 24 -7 5 -14 -23 -47 -114 -48 -133 0 -7 -9 -22 -20 -34 -10
-12 -17 -25 -14 -29 2 -4 0 -10 -6 -14 -5 -3 -10 0 -10 7 0 7 -14 -14 -30 -47
-17 -33 -34 -67 -39 -75 -5 -8 -16 -32 -25 -52 -8 -21 -20 -38 -26 -38 -5 0
-10 -5 -10 -11 0 -12 -9 -22 -70 -86 -16 -17 -30 -35 -30 -41 0 -5 -19 -31
-43 -56 -33 -34 -46 -43 -55 -34 -8 8 -14 4 -22 -16 -5 -15 -15 -24 -20 -21
-6 3 -17 0 -25 -9 -20 -19 -19 -30 1 -22 12 5 15 2 10 -10 -3 -8 -6 -18 -6
-20 0 -2 -9 -4 -20 -4 -22 0 -20 10 12 77 12 23 25 40 29 37 5 -3 9 3 9 13 0
25 48 147 82 212 16 29 28 57 26 62 -3 8 -45 -69 -164 -302 -42 -81 -87 -177
-149 -314 -15 -32 -24 -65 -51 -185 -9 -41 -25 -99 -36 -129 -10 -30 -18 -64
-18 -76 0 -12 -11 -43 -25 -69 -13 -25 -22 -46 -19 -46 19 0 197 96 242 130
29 22 56 40 61 40 5 0 11 3 13 8 2 4 26 23 53 41 62 43 221 169 251 198 7 7
17 13 22 13 6 0 12 3 14 8 2 4 26 25 53 47 110 88 485 455 485 476 0 6 -6 4
-14 -3 -8 -7 -36 -31 -61 -53 -26 -22 -70 -61 -97 -87 -28 -26 -59 -50 -70
-54 -11 -3 -17 -8 -14 -12 3 -3 -9 -15 -28 -26 -19 -12 -44 -33 -56 -49 -12
-15 -26 -25 -31 -22 -5 4 -9 2 -9 -3 0 -11 -96 -85 -123 -95 -11 -4 -21 -16
-24 -27 -3 -11 -10 -20 -17 -20 -6 0 -23 -6 -38 -14 -23 -12 -27 -12 -32 1
-10 24 -7 33 10 33 12 0 15 6 10 25 -5 21 -3 24 16 22 19 -2 24 3 26 31 2 18
-1 32 -7 32 -6 0 -11 7 -11 15 0 8 3 15 8 15 4 0 23 15 43 33 20 17 45 38 55
45 11 7 13 10 6 6 -11 -5 -11 -2 0 15 7 12 16 21 19 21 3 0 19 12 35 28 29 27
177 158 201 177 7 6 19 16 28 23 17 14 17 13 20 -43 1 -16 5 -38 9 -47 7 -15
10 -16 22 -3 8 8 21 18 27 22 22 14 57 65 51 74 -3 5 8 9 23 9 21 0 39 11 64
38 48 53 58 57 75 36 11 -14 17 -15 20 -6 3 6 11 12 18 12 6 0 30 18 51 41 22
22 54 48 72 57 37 20 114 91 164 153 20 24 48 57 62 73 14 17 24 33 21 38 -3
4 2 11 10 14 8 3 20 22 27 42 7 21 18 42 26 47 7 6 23 29 35 52 13 23 44 64
70 92 44 48 63 71 56 71 -2 0 -38 -34 -80 -76z m-156 -219 c-4 -19 -53 -76
-116 -134 -22 -20 -47 -43 -57 -53 -22 -20 -63 -34 -58 -19 2 6 51 60 108 121
98 104 130 126 123 85z m-242 -235 c0 -5 -2 -10 -4 -10 -3 0 -8 5 -11 10 -3 6
-1 10 4 10 6 0 11 -4 11 -10z m-1200 -611 c0 -11 -4 -18 -10 -14 -5 3 -7 12
-3 20 7 21 13 19 13 -6z m310 -74 c-7 -8 -17 -15 -23 -15 -5 0 -2 9 8 20 21
23 35 19 15 -5z"/>
<path d="M546 5103 c-6 -14 -5 -15 5 -6 7 7 10 15 7 18 -3 3 -9 -2 -12 -12z"/>
<path d="M666 4803 c-6 -14 -5 -15 5 -6 7 7 10 15 7 18 -3 3 -9 -2 -12 -12z"/>
<path d="M582 4605 c-14 -31 -15 -35 -3 -35 8 0 23 51 17 58 -2 1 -8 -9 -14
-23z"/>
<path d="M2235 4460 c-3 -5 -1 -10 4 -10 6 0 11 5 11 10 0 6 -2 10 -4 10 -3 0
-8 -4 -11 -10z"/>
<path d="M5398 4258 c7 -7 16 -7 28 0 14 8 13 10 -10 10 -18 0 -24 -4 -18 -10z"/>
<path d="M5328 4233 c12 -2 32 -2 45 0 12 2 2 4 -23 4 -25 0 -35 -2 -22 -4z"/>
<path d="M5413 4223 c9 -2 25 -2 35 0 9 3 1 5 -18 5 -19 0 -27 -2 -17 -5z"/>
<path d="M5853 4133 c-17 -6 -16 -20 1 -26 11 -4 13 -1 9 10 -4 11 -2 14 5 9
7 -4 12 -2 12 3 0 12 -7 13 -27 4z"/>
<path d="M5650 3899 c0 -5 5 -7 10 -4 6 3 10 8 10 11 0 2 -4 4 -10 4 -5 0 -10
-5 -10 -11z"/>
<path d="M6528 3813 c7 -3 16 -2 19 1 4 3 -2 6 -13 5 -11 0 -14 -3 -6 -6z"/>
<path d="M2450 3740 c-19 -11 -30 -19 -24 -20 12 0 74 29 74 36 0 8 -15 3 -50
-16z"/>
<path d="M2331 3695 c-35 -13 -68 -31 -73 -39 -5 -9 -14 -14 -19 -10 -5 3 -8
1 -7 -4 2 -5 -8 -19 -22 -31 l-25 -22 40 22 c22 12 46 26 52 31 7 6 40 23 73
39 33 17 60 32 60 34 0 7 -10 5 -79 -20z"/>
<path d="M1647 3469 c-10 -6 -71 -28 -135 -49 -65 -22 -162 -57 -217 -79 -55
-23 -103 -41 -108 -41 -5 0 -41 -15 -80 -34 -115 -54 -297 -132 -352 -151 -77
-25 -472 -216 -688 -331 l-67 -36 0 -65 c0 -58 2 -64 18 -58 58 24 267 93 271
89 14 -14 -52 -68 -163 -133 l-126 -74 0 -98 c0 -55 2 -99 3 -99 8 0 169 61
287 108 69 27 145 57 170 65 25 8 81 32 125 52 44 21 109 51 145 67 36 17 97
46 136 64 39 19 76 34 83 34 6 0 11 3 11 8 0 4 15 13 33 21 37 16 82 38 218
107 52 27 111 55 130 63 19 8 51 25 71 38 21 13 42 23 47 23 5 0 40 18 79 40
38 22 76 40 86 40 9 0 16 4 16 9 0 4 23 19 50 32 28 13 50 27 50 31 0 5 9 8
19 8 11 0 23 5 27 11 3 6 20 17 38 25 17 7 25 13 17 14 -13 0 -118 -46 -161
-71 -44 -25 -159 -79 -169 -79 -6 0 -11 -4 -11 -10 0 -5 -5 -10 -12 -10 -18 0
-88 -33 -88 -42 0 -4 -5 -8 -10 -8 -6 0 -67 -27 -136 -60 -69 -33 -129 -58
-133 -56 -4 3 -17 -4 -29 -14 -12 -11 -33 -20 -47 -20 -14 0 -25 -4 -25 -8 0
-4 -16 -8 -36 -9 -20 -1 -40 -7 -45 -14 -4 -7 -11 -10 -15 -7 -11 11 107 128
136 135 14 3 34 11 45 18 11 6 37 17 57 24 31 10 40 19 49 51 12 38 46 64 72
54 7 -2 33 11 58 31 24 19 61 38 82 41 20 4 37 10 37 14 0 5 57 36 128 70 70
33 134 65 142 70 8 6 26 15 40 20 14 6 33 15 42 20 10 6 25 10 33 10 8 0 15 4
15 8 0 4 23 16 50 26 30 11 50 24 50 33 0 11 3 13 13 5 14 -12 82 17 76 33 -2
6 -8 9 -12 7 -5 -1 -25 3 -46 9 -32 10 -45 8 -92 -12 -30 -13 -57 -28 -61 -33
-4 -6 -8 -7 -8 -3 0 5 -12 0 -27 -11 -16 -10 -50 -27 -78 -37 -27 -10 -54 -21
-60 -25 -5 -5 -46 -20 -90 -35 -44 -16 -90 -34 -101 -42 -24 -15 -74 -8 -74
11 1 29 27 45 143 85 46 16 77 51 77 87 0 8 9 14 20 14 11 0 20 6 20 14 0 8 6
17 13 19 6 3 8 6 2 6 -5 0 -18 -4 -28 -10z m-279 -217 c16 -11 -22 -62 -46
-62 -9 0 -30 -7 -46 -15 -16 -9 -41 -17 -55 -19 -14 -1 -42 -12 -61 -24 -39
-24 -49 -27 -51 -12 -5 28 -2 34 16 37 11 1 37 6 58 9 22 4 37 12 37 20 0 8 9
14 20 14 11 0 20 4 20 10 0 5 7 7 15 4 8 -4 15 -1 15 5 0 6 12 17 28 25 32 18
33 18 50 8z m-201 -269 c2 -6 -3 -13 -12 -16 -10 -5 -15 0 -15 14 0 21 21 22
27 2z"/>
<path d="M1891 3204 c-18 -8 -31 -18 -28 -21 7 -7 67 19 67 29 0 5 -1 8 -2 7
-2 0 -18 -7 -37 -15z"/>
<path d="M6556 2997 c3 -10 9 -15 12 -12 3 3 0 11 -7 18 -10 9 -11 8 -5 -6z"/>
<path d="M4830 2988 c0 -2 -9 -28 -21 -58 -23 -61 -18 -58 29 13 29 43 30 47
12 47 -11 0 -20 -1 -20 -2z"/>
<path d="M6665 2860 c-8 -13 5 -13 25 0 13 8 13 10 -2 10 -9 0 -20 -4 -23 -10z"/>
<path d="M1478 2803 c7 -3 16 -2 19 1 4 3 -2 6 -13 5 -11 0 -14 -3 -6 -6z"/>
<path d="M1435 2790 c-3 -6 1 -7 9 -4 18 7 21 14 7 14 -6 0 -13 -4 -16 -10z"/>
<path d="M6888 2733 c6 -2 18 -2 25 0 6 3 1 5 -13 5 -14 0 -19 -2 -12 -5z"/>
<path d="M893 2605 c-100 -34 -197 -69 -216 -78 -19 -10 -45 -17 -57 -17 -12
0 -34 -6 -48 -14 -15 -8 -50 -22 -79 -31 -28 -9 -57 -23 -63 -31 -7 -7 -19
-14 -26 -14 -8 0 -14 -4 -14 -9 0 -5 -20 -15 -45 -22 -25 -7 -45 -17 -45 -21
0 -4 -5 -8 -10 -8 -10 0 -115 -48 -233 -105 l-57 -28 0 -113 0 -112 58 19 c84
27 262 90 307 109 11 5 40 16 65 24 25 8 83 29 130 46 47 17 96 35 110 40 35
11 120 48 152 66 14 7 31 14 37 14 20 0 164 68 334 157 22 12 37 33 24 33 -5
0 -128 -50 -172 -70 -62 -27 -79 -33 -92 -31 -7 1 -13 -2 -13 -8 0 -5 -13 -12
-30 -16 -16 -4 -30 -10 -30 -13 0 -4 -27 -16 -60 -26 -33 -11 -60 -23 -60 -28
0 -4 -7 -8 -15 -8 -9 0 -28 -6 -43 -14 -15 -7 -46 -16 -68 -19 -41 -5 -41 -4
-23 14 22 22 24 40 7 57 -9 9 -9 15 2 26 19 19 76 34 66 17 -4 -6 -2 -11 3
-11 6 0 11 9 11 20 0 13 7 20 19 20 15 0 21 8 23 32 3 30 10 37 83 75 44 23
91 47 105 54 14 6 41 20 61 30 20 11 43 19 51 19 19 0 53 26 42 31 -5 3 -91
-23 -191 -56z m-391 -377 c-7 -7 -12 -8 -12 -2 0 14 12 26 19 19 2 -3 -1 -11
-7 -17z"/>
<path d="M5238 2603 c7 -3 16 -2 19 1 4 3 -2 6 -13 5 -11 0 -14 -3 -6 -6z"/>
<path d="M1310 2550 c0 -5 4 -10 9 -10 6 0 13 5 16 10 3 6 -1 10 -9 10 -9 0
-16 -4 -16 -10z"/>
<path d="M4391 2541 c-29 -18 61 -47 224 -72 138 -21 389 -35 345 -20 -14 5
-35 9 -48 10 -13 1 -30 8 -38 16 -9 8 -32 15 -52 16 -20 0 -44 2 -52 3 -8 2
-55 6 -105 10 -77 6 -195 26 -245 41 -8 3 -21 1 -29 -4z"/>
<path d="M1250 2520 c-13 -9 -13 -10 0 -10 8 0 22 5 30 10 13 9 13 10 0 10 -8
0 -22 -5 -30 -10z"/>
<path d="M5093 2473 c15 -2 39 -2 55 0 15 2 2 4 -28 4 -30 0 -43 -2 -27 -4z"/>
<path d="M5275 2471 c50 -3 128 -3 175 0 59 4 32 5 -90 5 -127 0 -151 -1 -85
-5z"/>
<path d="M5635 2470 c-3 -6 1 -7 9 -4 18 7 21 14 7 14 -6 0 -13 -4 -16 -10z"/>
<path d="M5388 2433 c7 -3 16 -2 19 1 4 3 -2 6 -13 5 -11 0 -14 -3 -6 -6z"/>
<path d="M5430 2395 c0 -13 11 -59 25 -102 14 -43 25 -94 25 -114 0 -21 13
-64 30 -97 24 -50 36 -62 70 -76 45 -18 84 -15 110 9 9 8 21 15 27 15 5 0 19
10 31 23 17 18 23 39 26 88 2 35 13 87 25 116 l20 52 -25 -9 c-16 -6 -32 -7
-42 -1 -15 9 -15 10 3 16 54 18 125 72 125 96 0 5 -98 8 -225 8 l-225 0 0 -24z
m253 -192 c5 -27 2 -40 -8 -46 -8 -4 -15 -16 -15 -26 0 -28 -10 -31 -31 -10
-10 10 -28 19 -39 19 -13 0 -20 7 -20 19 0 30 33 58 56 49 3 -2 10 5 15 15 17
29 36 20 42 -20z"/>
<path d="M1140 2280 c-30 -11 -80 -24 -110 -31 -30 -6 -59 -14 -65 -18 -5 -4
-36 -13 -67 -20 -32 -7 -70 -19 -86 -27 -16 -7 -62 -23 -103 -33 -41 -11 -92
-27 -114 -35 -22 -8 -49 -15 -61 -16 -11 0 -23 -3 -26 -6 -4 -3 -76 -30 -161
-59 -86 -29 -184 -67 -220 -84 -36 -17 -74 -31 -85 -31 -37 0 -43 -22 -41
-154 1 -110 3 -126 17 -126 44 0 837 261 959 316 17 8 71 29 120 48 48 18 95
36 103 39 8 4 57 23 109 44 52 21 96 44 99 51 3 11 -2 11 -24 -1 -16 -8 -99
-38 -184 -67 -85 -28 -157 -56 -160 -61 -3 -4 -24 -11 -45 -15 -22 -3 -45 -10
-51 -15 -7 -5 -65 -27 -130 -48 -66 -22 -150 -50 -189 -64 -38 -14 -90 -31
-115 -38 -25 -7 -47 -16 -50 -19 -6 -7 -104 -30 -126 -30 -27 0 -14 15 30 34
39 18 54 35 60 71 1 9 11 16 19 14 40 -12 69 4 64 36 -1 5 13 12 32 16 19 4
38 14 43 23 5 9 13 14 17 12 4 -3 25 4 47 14 21 11 50 20 65 20 53 0 89 13
105 37 13 21 14 27 3 34 -25 15 22 50 69 52 27 1 42 6 42 14 0 7 7 13 15 13 8
0 15 4 15 9 0 4 11 6 25 3 16 -3 27 1 31 11 4 12 14 15 35 10 19 -3 29 -1 29
6 0 7 5 9 10 6 6 -3 10 2 11 12 0 10 3 13 5 7 8 -19 66 -2 111 32 l45 34 -34
-1 c-18 0 -58 -9 -88 -19z"/>
<path d="M1548 2193 c7 -3 16 -2 19 1 4 3 -2 6 -13 5 -11 0 -14 -3 -6 -6z"/>
<path d="M1500 2181 c0 -5 -14 -12 -31 -16 -17 -4 -28 -9 -25 -12 6 -7 74 16
81 28 4 5 -1 9 -9 9 -9 0 -16 -4 -16 -9z"/>
<path d="M855 2080 c3 -5 13 -10 21 -10 8 0 14 5 14 10 0 6 -9 10 -21 10 -11
0 -17 -4 -14 -10z"/>
<path d="M1285 1413 c-432 -17 -865 -56 -1150 -103 -66 -11 -123 -20 -127 -20
-5 0 -8 -56 -8 -125 l0 -125 63 6 c34 3 69 8 77 11 8 2 73 11 145 20 72 8 160
19 198 24 37 5 97 13 135 18 37 4 157 20 267 34 110 14 254 28 320 31 159 7
414 23 660 41 110 8 252 17 315 19 63 3 156 10 205 15 50 6 149 15 220 21 355
29 571 56 581 71 7 12 -27 17 -161 24 -66 3 -293 14 -505 25 -348 18 -955 24
-1235 13z m850 -136 c-9 -4 -73 -10 -143 -13 -99 -3 -121 -2 -102 7 14 6 52 9
85 7 33 -3 71 -2 85 2 37 10 94 8 75 -3z m-325 -23 c0 -12 -38 -16 -164 -15
-20 0 -32 8 -25 16 7 6 162 22 177 17 6 -2 12 -10 12 -18z"/>
<path d="M2210 1150 c-63 -4 -167 -11 -230 -14 -63 -4 -162 -11 -220 -16 -58
-5 -159 -14 -225 -20 -131 -11 -311 -34 -390 -50 -27 -6 -86 -15 -130 -20 -44
-6 -114 -15 -155 -20 -41 -6 -95 -13 -120 -15 -25 -3 -67 -10 -95 -15 -27 -5
-72 -11 -100 -15 -27 -3 -104 -15 -170 -25 -66 -10 -163 -24 -215 -30 -52 -6
-110 -13 -127 -16 l-33 -5 0 -96 0 -95 28 6 c45 11 271 45 377 56 55 6 124 15
153 21 29 6 76 12 105 14 73 4 162 15 227 26 30 5 84 12 120 15 36 3 69 9 75
12 5 3 46 9 90 13 44 4 109 13 145 19 162 27 452 54 481 45 19 -6 19 -7 -3
-27 -21 -18 -21 -19 -3 -12 11 4 40 9 65 12 25 2 50 9 55 14 7 7 -4 9 -33 5
-41 -5 -43 -4 -28 12 18 20 18 20 101 27 33 3 65 10 71 15 13 11 227 29 272
24 18 -3 45 1 60 9 18 9 42 11 72 7 l45 -7 -80 -13 c-44 -8 -98 -15 -120 -17
-69 -5 -125 -16 -125 -25 0 -4 6 -6 13 -4 6 3 48 9 92 14 44 6 127 17 185 25
58 9 143 21 190 27 47 6 104 15 127 20 23 5 58 9 78 9 20 0 55 4 78 9 23 5 69
15 102 21 33 7 96 20 140 30 44 10 102 21 128 25 84 11 41 20 -101 20 -76 0
-299 3 -497 7 -198 4 -412 3 -475 -2z m297 -136 c-3 -3 -12 -4 -19 -1 -8 3 -5
6 6 6 11 1 17 -2 13 -5z"/>
<path d="M1983 923 c9 -2 23 -2 30 0 6 3 -1 5 -18 5 -16 0 -22 -2 -12 -5z"/>
<path d="M2 68 l3 -63 385 -1 c212 -1 367 2 345 6 -158 30 -701 120 -721 120
-12 0 -14 -12 -12 -62z"/>
</g>
</svg>
