<?xml version="1.0" standalone="no"?>
<!DOCTYPE svg PUBLIC "-//W3C//DTD SVG 20010904//EN"
 "http://www.w3.org/TR/2001/REC-SVG-20010904/DTD/svg10.dtd">
<svg version="1.0" xmlns="http://www.w3.org/2000/svg"
 width="1300.000000pt" height="1083.000000pt" viewBox="0 0 1300.000000 1083.000000"
 preserveAspectRatio="xMidYMid meet">

<g transform="translate(0.000000,1083.000000) scale(0.100000,-0.100000)"
fill="#000000" stroke="none">
<path d="M6165 10700 c-86 -50 -151 -115 -184 -183 -102 -207 -40 -427 146
-519 85 -41 179 -45 258 -9 86 38 154 123 155 191 0 23 -3 21 -47 -22 -62 -59
-81 -68 -143 -68 -72 0 -123 28 -149 83 -49 102 0 197 102 197 38 0 71 -29 81
-72 8 -36 24 -35 40 2 17 43 9 82 -27 125 -55 67 -119 80 -229 45 -79 -25 -85
-25 -62 1 57 63 179 95 270 70 108 -29 182 -120 193 -235 l6 -61 100 -11 c55
-7 124 -15 153 -18 l52 -6 0 53 c0 62 -21 141 -58 212 -34 67 -152 183 -228
223 l-62 32 -158 -1 c-157 0 -160 0 -209 -29z"/>
<path d="M7290 10550 c-19 -5 -50 -15 -68 -23 l-34 -14 74 -6 c78 -6 162 -28
192 -50 17 -13 17 -16 -13 -88 -70 -169 -200 -319 -412 -479 -64 -48 -138 -95
-165 -105 -27 -10 -92 -35 -144 -56 -347 -135 -614 -183 -1027 -184 -144 0
-259 -3 -255 -6 24 -21 354 -83 535 -100 161 -15 567 -7 692 14 219 37 398 88
476 137 19 11 51 25 71 30 20 6 50 22 66 35 17 14 39 25 50 25 11 0 25 7 32
14 6 8 27 20 45 26 18 6 40 22 49 35 9 13 48 43 88 66 85 49 131 88 212 178
90 101 212 291 187 291 -5 0 -40 -40 -79 -88 -80 -100 -169 -187 -260 -252
-34 -25 -96 -70 -137 -101 -51 -37 -96 -61 -138 -73 -75 -21 -146 -54 -170
-78 -10 -10 -30 -18 -45 -18 -15 0 -56 -15 -92 -33 -36 -19 -69 -33 -75 -31
-5 2 -36 8 -67 14 l-57 11 16 34 c15 32 17 33 39 18 21 -13 27 -14 47 -1 12 8
44 20 71 27 27 7 69 26 92 43 27 19 49 28 60 24 18 -7 128 50 228 117 153 104
335 318 434 514 l22 41 -88 32 c-145 53 -226 70 -326 69 -50 -1 -107 -5 -126
-9z"/>
<path d="M4895 9304 c-141 -19 -194 -31 -284 -60 -255 -83 -476 -252 -623
-474 -69 -105 -97 -161 -136 -270 -54 -156 -67 -230 -67 -405 0 -169 11 -245
52 -375 25 -81 131 -300 145 -300 14 0 9 13 -26 80 -48 90 -89 199 -117 305
-31 121 -34 377 -5 500 59 253 153 431 315 598 228 235 572 372 886 354 377
-22 701 -204 922 -518 31 -45 59 -77 61 -71 8 26 20 9 25 -37 3 -27 25 -118
48 -202 37 -135 42 -167 43 -259 0 -101 -8 -139 -49 -234 -6 -14 11 -8 76 27
182 99 341 138 553 138 335 -1 653 -136 897 -380 245 -244 369 -538 369 -873
0 -74 4 -108 12 -110 9 -3 6 -22 -11 -67 l-23 -63 22 -23 c26 -28 21 -52 -12
-57 -19 -2 -27 -18 -54 -98 -36 -112 -109 -257 -172 -343 -154 -211 -417 -411
-684 -521 -120 -50 -402 -142 -526 -172 -113 -28 -151 -27 -50 0 154 42 340
101 423 133 294 116 567 293 718 468 289 335 383 795 246 1209 -165 498 -665
838 -1194 812 -257 -12 -462 -89 -661 -247 -41 -33 -76 -59 -78 -59 -2 0 4 17
14 38 117 244 103 547 -37 827 -63 127 -168 257 -265 330 -293 220 -704 277
-1038 142 -300 -122 -535 -396 -617 -723 -26 -105 -24 -372 5 -476 38 -140
115 -304 187 -401 16 -22 32 -16 114 47 131 100 272 339 259 442 -3 24 -8 18
-51 -49 -42 -66 -108 -137 -128 -137 -12 0 -68 135 -83 200 -20 84 -20 232 0
323 9 40 36 115 61 167 39 81 59 108 137 186 78 78 105 98 186 137 388 186
841 40 1025 -331 101 -203 106 -433 14 -629 -16 -34 -29 -64 -29 -67 0 -3 21
-28 46 -57 25 -28 53 -68 62 -88 9 -20 17 -37 18 -39 3 -5 188 -42 212 -42 14
0 50 23 91 58 87 75 152 120 221 153 216 102 406 114 705 44 88 -20 167 -42
176 -48 363 -259 516 -500 545 -858 14 -177 -37 -415 -121 -565 -180 -321
-540 -583 -989 -719 -123 -36 -421 -111 -706 -175 -464 -105 -623 -148 -812
-219 -419 -158 -722 -351 -1047 -666 -384 -373 -629 -793 -747 -1282 -91 -374
-98 -827 -18 -1180 132 -590 517 -1140 982 -1401 287 -162 618 -242 941 -229
155 6 264 25 395 69 381 127 733 462 845 802 38 115 51 195 51 323 0 327 -166
578 -454 686 -71 26 -94 30 -186 30 -157 0 -258 -42 -358 -147 -77 -81 -115
-168 -120 -276 -2 -47 1 -103 7 -125 12 -44 70 -150 77 -142 3 2 -4 20 -15 38
-103 178 -41 422 135 535 206 132 488 88 663 -102 186 -204 236 -465 144 -743
-53 -159 -180 -361 -295 -469 -278 -261 -673 -397 -1049 -362 -462 44 -854
256 -1159 630 -44 54 -210 294 -210 304 0 2 31 6 68 9 83 8 126 22 170 54 44
33 40 44 -10 26 -30 -10 -64 -13 -110 -10 -56 5 -77 12 -123 43 -65 43 -94 87
-136 210 -84 246 -120 471 -120 744 0 422 75 720 291 1149 48 97 65 122 78
118 9 -3 51 -18 92 -33 60 -22 93 -28 165 -28 78 -1 98 3 152 28 75 34 149
108 191 192 16 32 51 130 77 218 75 255 91 287 168 339 40 27 40 28 12 22 -16
-4 -37 -9 -46 -11 -30 -8 -183 -177 -248 -274 -134 -198 -165 -230 -230 -230
-29 0 -110 53 -118 77 -5 15 256 279 357 360 289 232 610 397 972 499 79 22
357 89 418 100 763 142 1102 237 1411 395 363 185 603 411 759 715 65 126 96
227 109 351 6 54 18 123 26 153 19 71 19 227 0 353 -27 179 -109 377 -233 563
-207 309 -531 510 -933 578 -50 9 -61 25 -60 93 1 133 55 257 156 358 81 81
166 128 277 151 248 53 520 -81 634 -311 63 -127 82 -231 114 -615 19 -220 53
-372 115 -506 127 -276 389 -476 689 -525 105 -16 290 -7 386 21 333 95 568
349 625 675 50 289 -19 526 -210 721 -132 135 -287 219 -440 238 -55 7 -44 -7
15 -19 19 -3 82 -29 139 -57 91 -44 116 -62 192 -137 75 -75 94 -101 137 -192
66 -135 87 -235 79 -375 -15 -258 -168 -499 -387 -609 -117 -58 -167 -69 -315
-70 -160 0 -224 13 -345 73 -105 51 -230 177 -282 282 -67 138 -83 247 -93
615 -11 433 -43 566 -191 792 -141 217 -340 353 -594 405 -122 26 -365 21
-475 -10 -177 -48 -308 -125 -432 -255 -182 -189 -271 -384 -295 -645 -11
-121 -12 -125 -40 -142 -15 -9 -26 -19 -24 -21 2 -2 -5 -4 -17 -5 -12 0 -34
-4 -49 -8 -28 -8 -28 -8 -29 45 -1 116 -17 210 -56 334 -33 103 -80 196 -102
202 -20 5 -27 16 -65 104 -15 37 -49 84 -97 133 -177 187 -378 305 -608 357
-83 19 -317 33 -386 23z m2652 -195 c150 -38 270 -103 386 -209 160 -146 254
-350 273 -591 7 -88 -5 -664 -13 -655 -3 2 -9 132 -14 288 -5 156 -14 321 -19
368 -29 222 -137 417 -308 553 -87 69 -141 100 -238 134 -73 25 -90 27 -229
27 -175 -1 -258 -18 -393 -85 -234 -115 -380 -332 -428 -636 -9 -60 -21 -111
-27 -115 -6 -3 -31 -9 -56 -13 -25 -3 -56 -9 -68 -12 -22 -5 -23 -2 -23 45 0
69 25 204 53 287 120 350 403 584 769 635 86 12 247 2 335 -21z m-1046 -1186
c13 -16 12 -17 -3 -4 -10 7 -18 15 -18 17 0 8 8 3 21 -13z m-2423 -3884 c57
-51 106 -79 139 -79 10 0 42 11 71 25 61 28 67 19 15 -25 -71 -58 -160 -63
-259 -15 -27 13 -60 35 -72 48 l-22 23 31 37 c17 20 33 37 36 37 2 0 30 -23
61 -51z"/>
<path d="M5765 4258 c-38 -28 -164 -114 -280 -191 -257 -171 -364 -270 -420
-388 -26 -56 -37 -93 -41 -145 l-5 -69 26 53 c40 87 92 148 163 195 82 55 132
74 447 178 264 86 320 110 398 167 44 32 122 130 112 140 -2 3 -24 -17 -49
-44 -82 -91 -159 -122 -408 -159 -246 -37 -246 -34 4 51 89 30 184 67 211 82
49 26 117 95 117 117 0 11 -160 65 -191 65 -8 0 -45 -23 -84 -52z"/>
<path d="M5931 3789 c-40 -33 -93 -45 -236 -54 -131 -8 -208 -22 -263 -47 -60
-29 -142 -106 -175 -165 -26 -50 -57 -150 -57 -188 0 -18 3 -16 24 10 l24 29
35 -31 c104 -91 218 -119 305 -74 66 34 144 135 172 224 14 46 27 53 111 61
86 8 147 30 190 66 l34 30 -60 -27 c-85 -39 -196 -38 -313 1 -46 16 -82 30
-80 31 2 2 37 -1 78 -6 158 -19 275 5 333 69 17 19 17 20 -25 53 -24 18 -47
36 -53 40 -5 4 -25 -6 -44 -22z m-183 -234 c10 -8 -42 -86 -78 -119 -37 -33
-107 -73 -115 -64 -1 2 22 46 52 99 l54 97 42 -5 c23 -3 43 -7 45 -8z m-278
-25 c38 -38 19 -109 -35 -135 -38 -17 -160 -21 -170 -4 -10 15 41 84 83 112
80 54 93 56 122 27z"/>
<path d="M5865 3345 c-129 -105 -177 -136 -245 -160 -64 -23 -163 -21 -229 4
-30 11 -56 19 -58 17 -9 -8 94 -91 141 -112 108 -49 261 -37 398 32 63 31 200
115 196 120 -2 1 -68 -15 -147 -37 -79 -22 -145 -38 -147 -36 -2 2 62 36 142
75 l145 72 -21 37 c-11 21 -29 48 -39 61 l-17 24 -119 -97z"/>
</g>
</svg>
